<mxfile host="app.diagrams.net" modified="2022-04-21T07:16:06.955Z" agent="5.0 (Macintosh; Intel Mac OS X 10_15_7) AppleWebKit/537.36 (KHTML, like Gecko) Chrome/100.0.4896.127 Safari/537.36" etag="Y9E3JrY-4JFtjNW2SiOD" version="17.4.6" type="github">
  <diagram id="qFPpUA0Ohym5NR6fCEN7" name="第 1 页">
    <mxGraphModel dx="1161" dy="795" grid="1" gridSize="10" guides="1" tooltips="1" connect="1" arrows="1" fold="1" page="1" pageScale="1" pageWidth="1169" pageHeight="1654" math="0" shadow="0">
      <root>
        <mxCell id="0" />
        <mxCell id="1" parent="0" />
        <mxCell id="sZor36c5o8YQyrvtszOy-14" value="" style="group" vertex="1" connectable="0" parent="1">
          <mxGeometry x="138" y="195" width="330" height="490" as="geometry" />
        </mxCell>
        <mxCell id="sZor36c5o8YQyrvtszOy-4" value="" style="rounded=1;whiteSpace=wrap;html=1;strokeWidth=3;fillColor=#66CC00;strokeColor=#99FF33;" vertex="1" parent="sZor36c5o8YQyrvtszOy-14">
          <mxGeometry width="330" height="490" as="geometry" />
        </mxCell>
        <mxCell id="sZor36c5o8YQyrvtszOy-12" value="" style="rounded=0;whiteSpace=wrap;html=1;strokeColor=#FFFFFF;strokeWidth=3;fillColor=#66CC00;dashed=1;" vertex="1" parent="sZor36c5o8YQyrvtszOy-14">
          <mxGeometry x="26.756756756756758" y="57.75" width="276.48648648648646" height="406" as="geometry" />
        </mxCell>
        <mxCell id="sZor36c5o8YQyrvtszOy-5" value="" style="shape=image;verticalLabelPosition=bottom;labelBackgroundColor=#ffffff;verticalAlign=top;aspect=fixed;imageAspect=0;image=data:image/svg+xml,PHN2ZyB4bWxuczpjYz0iaHR0cDovL2NyZWF0aXZlY29tbW9ucy5vcmcvbnMjIiB4bWxuczpkYz0iaHR0cDovL3B1cmwub3JnL2RjL2VsZW1lbnRzLzEuMS8iIHhtbG5zOmlua3NjYXBlPSJodHRwOi8vd3d3Lmlua3NjYXBlLm9yZy9uYW1lc3BhY2VzL2lua3NjYXBlIiB4bWxuczpyZGY9Imh0dHA6Ly93d3cudzMub3JnLzE5OTkvMDIvMjItcmRmLXN5bnRheC1ucyMiIHhtbG5zOnNvZGlwb2RpPSJodHRwOi8vc29kaXBvZGkuc291cmNlZm9yZ2UubmV0L0RURC9zb2RpcG9kaS0wLmR0ZCIgeG1sbnM6c3ZnPSJodHRwOi8vd3d3LnczLm9yZy8yMDAwL3N2ZyIgeG1sbnM9Imh0dHA6Ly93d3cudzMub3JnLzIwMDAvc3ZnIiB4bWxuczp4bGluaz0iaHR0cDovL3d3dy53My5vcmcvMTk5OS94bGluayIgdmVyc2lvbj0iMS4xIiBpZD0ic3ZnMjY0NTU4IiBpbmtzY2FwZTp2ZXJzaW9uPSIwLjkyLjMgKDI0MDU1NDYsIDIwMTgtMDMtMTEpIiBzb2RpcG9kaTpkb2NuYW1lPSJ0ZnMuc3ZnIiB4PSIwcHgiIHk9IjBweCIgdmlld0JveD0iMCAwIDQ4LjQxIDY5Ljc2IiBzdHlsZT0iZW5hYmxlLWJhY2tncm91bmQ6bmV3IDAgMCA0OC40MSA2OS43NjsiIHhtbDpzcGFjZT0icHJlc2VydmUiPiYjeGE7PHNvZGlwb2RpOm5hbWVkdmlldyBib3JkZXJjb2xvcj0iIzY2NjY2NiIgYm9yZGVyb3BhY2l0eT0iMSIgZml0LW1hcmdpbi1ib3R0b209IjAiIGZpdC1tYXJnaW4tbGVmdD0iMCIgZml0LW1hcmdpbi1yaWdodD0iMCIgZml0LW1hcmdpbi10b3A9IjAiIGdyaWR0b2xlcmFuY2U9IjEwIiBndWlkZXRvbGVyYW5jZT0iMTAiIGlkPSJuYW1lZHZpZXcyNjQ1NjAiIGlua3NjYXBlOmN1cnJlbnQtbGF5ZXI9InN2ZzI2NDU1OCIgaW5rc2NhcGU6Y3g9IjMyLjE5MDg5NyIgaW5rc2NhcGU6Y3k9IjQ2LjUwODM0NiIgaW5rc2NhcGU6cGFnZW9wYWNpdHk9IjAiIGlua3NjYXBlOnBhZ2VzaGFkb3c9IjIiIGlua3NjYXBlOndpbmRvdy1oZWlnaHQ9IjEwMTciIGlua3NjYXBlOndpbmRvdy1tYXhpbWl6ZWQ9IjEiIGlua3NjYXBlOndpbmRvdy13aWR0aD0iMTkyMCIgaW5rc2NhcGU6d2luZG93LXg9Ii04IiBpbmtzY2FwZTp3aW5kb3cteT0iLTgiIGlua3NjYXBlOnpvb209IjkuMTI1MzY4OSIgb2JqZWN0dG9sZXJhbmNlPSIxMCIgcGFnZWNvbG9yPSIjZmZmZmZmIiBzaG93Z3JpZD0iZmFsc2UiPiYjeGE7CTwvc29kaXBvZGk6bmFtZWR2aWV3PiYjeGE7PGcgaWQ9ImcyNjQ1NTYiIHRyYW5zZm9ybT0idHJhbnNsYXRlKC0wLjc1LC0wLjc1MDAzODc4KSI+JiN4YTsJPHRpdGxlIGlkPSJ0aXRsZTI2NDQ2NiI+UGFnZS0xPC90aXRsZT4mI3hhOwk8ZyBpZD0iZ3JvdXAxMTE5Ni0xIiB0cmFuc2Zvcm09InRyYW5zbGF0ZSgxLjUsLTEuNSkiPiYjeGE7CQk8dGl0bGUgaWQ9InRpdGxlMjY0NDY4Ij5URlM8L3RpdGxlPiYjeGE7CQk8ZyBpZD0iZ3JvdXAxMTE5Ny0yIj4mI3hhOwkJCTx0aXRsZSBpZD0idGl0bGUyNjQ0NzAiPkdlbmVyaWMgU2VydmljZTwvdGl0bGU+JiN4YTsJCQk8ZyBpZD0iZ3JvdXAxMTE5OC0zIiB0cmFuc2Zvcm09InRyYW5zbGF0ZSgwLC0wLjAwNzM5ODc2KSI+JiN4YTsJCQkJPHRpdGxlIGlkPSJ0aXRsZTI2NDQ3MiI+ZzE1NDMzLjExNzIxPC90aXRsZT4mI3hhOwkJCQk8ZyBpZD0ic2hhcGUxMTE5OS00Ij4mI3hhOwkJCQkJPHRpdGxlIGlkPSJ0aXRsZTI2NDQ3NCI+cmVjdDE1NDA1PC90aXRsZT4mI3hhOwkJCQkJJiN4YTsJCQkJCQk8cmVjdCBpZD0icmVjdDI2NDQ3NiIgeT0iMy4wMSIgc3R5bGU9ImZpbGw6I0ZGRkZGRjtzdHJva2U6IzU1NkE4QTtzdHJva2Utd2lkdGg6MS41O3N0cm9rZS1taXRlcmxpbWl0OjM7IiB3aWR0aD0iMzkuNzUiIGhlaWdodD0iNjguMjUiLz4mI3hhOwkJCQk8L2c+JiN4YTsJCQkJPGcgaWQ9Imdyb3VwMTEyMDAtNiIgdHJhbnNmb3JtPSJ0cmFuc2xhdGUoMS41LC0wLjc1KSI+JiN4YTsJCQkJCTx0aXRsZSBpZD0idGl0bGUyNjQ0NzkiPmcxNTQyNTwvdGl0bGU+JiN4YTsJCQkJCTxnIGlkPSJzaGFwZTExMjAxLTciIHRyYW5zZm9ybT0idHJhbnNsYXRlKDE4KSI+JiN4YTsJCQkJCQk8dGl0bGUgaWQ9InRpdGxlMjY0NDgxIj5yZWN0MTU0MDc8L3RpdGxlPiYjeGE7CQkJCQkJPHJlY3QgaWQ9InJlY3QyNjQ0ODMiIHk9IjQuNTEiIHN0eWxlPSJmaWxsOiNFNUU1RTU7IiB3aWR0aD0iMTkuNSIgaGVpZ2h0PSI2Ni43NSIvPiYjeGE7CQkJCQk8L2c+JiN4YTsJCQkJCTxnIGlkPSJzaGFwZTExMjAyLTkiIHRyYW5zZm9ybT0idHJhbnNsYXRlKDAsLTQ4KSI+JiN4YTsJCQkJCQk8dGl0bGUgaWQ9InRpdGxlMjY0NDg2Ij5yZWN0MTU0MDk8L3RpdGxlPiYjeGE7CQkJCQkJPHJlY3QgaWQ9InJlY3QyNjQ0ODgiIHk9IjY5LjAxIiBzdHlsZT0iZmlsbDojMkJDN0Y0OyIgd2lkdGg9IjE4IiBoZWlnaHQ9IjIuMjUiLz4mI3hhOwkJCQkJPC9nPiYjeGE7CQkJCQk8ZyBpZD0ic2hhcGUxMTIwMy0xMSIgdHJhbnNmb3JtPSJ0cmFuc2xhdGUoMCwtNTguNSkiPiYjeGE7CQkJCQkJPHRpdGxlIGlkPSJ0aXRsZTI2NDQ5MSI+cG9seWdvbjE1NDExPC90aXRsZT4mI3hhOwkJCQkJCTxyZWN0IGlkPSJyZWN0MjY0NDkzIiB5PSI2OS4wMSIgc3R5bGU9ImZpbGw6bm9uZTsiIHdpZHRoPSIyNyIgaGVpZ2h0PSIyLjI1Ii8+JiN4YTsJCQkJCTwvZz4mI3hhOwkJCQkJPGcgaWQ9InNoYXBlMTEyMDQtMTMiIHRyYW5zZm9ybT0idHJhbnNsYXRlKDAsLTU4LjUpIj4mI3hhOwkJCQkJCTx0aXRsZSBpZD0idGl0bGUyNjQ0OTYiPnBvbHlsaW5lMTU0MTM8L3RpdGxlPiYjeGE7CQkJCQkJPHJlY3QgaWQ9InJlY3QyNjQ0OTgiIHk9IjY5LjAxIiBzdHlsZT0iZmlsbDpub25lOyIgd2lkdGg9IjI3IiBoZWlnaHQ9IjIuMjUiLz4mI3hhOwkJCQkJPC9nPiYjeGE7CQkJCQk8ZyBpZD0ic2hhcGUxMTIwNS0xNSIgdHJhbnNmb3JtPSJ0cmFuc2xhdGUoMCwtNTMuMjUpIj4mI3hhOwkJCQkJCTx0aXRsZSBpZD0idGl0bGUyNjQ1MDEiPnJlY3QxNTQxNTwvdGl0bGU+JiN4YTsJCQkJCQk8cmVjdCBpZD0icmVjdDI2NDUwMyIgeT0iNjkuMDEiIHN0eWxlPSJmaWxsOiMyQkM3RjQ7IiB3aWR0aD0iMTgiIGhlaWdodD0iMi4yNSIvPiYjeGE7CQkJCQk8L2c+JiN4YTsJCQkJCTxnIGlkPSJzaGFwZTExMjA2LTE3IiB0cmFuc2Zvcm09InRyYW5zbGF0ZSgwLC01OC41KSI+JiN4YTsJCQkJCQk8dGl0bGUgaWQ9InRpdGxlMjY0NTA2Ij5yZWN0MTU0MTc8L3RpdGxlPiYjeGE7CQkJCQkJPHJlY3QgaWQ9InJlY3QyNjQ1MDgiIHk9IjY5LjAxIiBzdHlsZT0iZmlsbDojMkJDN0Y0OyIgd2lkdGg9IjE4IiBoZWlnaHQ9IjIuMjUiLz4mI3hhOwkJCQkJPC9nPiYjeGE7CQkJCQk8ZyBpZD0ic2hhcGUxMTIwNy0xOSIgdHJhbnNmb3JtPSJ0cmFuc2xhdGUoMTgsLTQ4KSI+JiN4YTsJCQkJCQk8dGl0bGUgaWQ9InRpdGxlMjY0NTExIj5yZWN0MTU0MTk8L3RpdGxlPiYjeGE7CQkJCQkJPHJlY3QgaWQ9InJlY3QyNjQ1MTMiIHk9IjY5LjAxIiBzdHlsZT0iZmlsbDojNTU2QThBOyIgd2lkdGg9IjE5LjUiIGhlaWdodD0iMi4yNSIvPiYjeGE7CQkJCQk8L2c+JiN4YTsJCQkJCTxnIGlkPSJzaGFwZTExMjA4LTIxIiB0cmFuc2Zvcm09InRyYW5zbGF0ZSgxOCwtNTMuMjUpIj4mI3hhOwkJCQkJCTx0aXRsZSBpZD0idGl0bGUyNjQ1MTYiPnJlY3QxNTQyMTwvdGl0bGU+JiN4YTsJCQkJCQk8cmVjdCBpZD0icmVjdDI2NDUxOCIgeT0iNjkuMDEiIHN0eWxlPSJmaWxsOiM1NTZBOEE7IiB3aWR0aD0iMTkuNSIgaGVpZ2h0PSIyLjI1Ii8+JiN4YTsJCQkJCTwvZz4mI3hhOwkJCQkJPGcgaWQ9InNoYXBlMTEyMDktMjMiIHRyYW5zZm9ybT0idHJhbnNsYXRlKDE4LC01OC41KSI+JiN4YTsJCQkJCQk8dGl0bGUgaWQ9InRpdGxlMjY0NTIxIj5yZWN0MTU0MjM8L3RpdGxlPiYjeGE7CQkJCQkJPHJlY3QgaWQ9InJlY3QyNjQ1MjMiIHk9IjY5LjAxIiBzdHlsZT0iZmlsbDojNTU2QThBOyIgd2lkdGg9IjE5LjUiIGhlaWdodD0iMi4yNSIvPiYjeGE7CQkJCQk8L2c+JiN4YTsJCQkJPC9nPiYjeGE7CQkJCTxnIGlkPSJzaGFwZTExMjEwLTI1IiB0cmFuc2Zvcm09InRyYW5zbGF0ZSgwLjc1LC01OS4yNSkiPiYjeGE7CQkJCQk8dGl0bGUgaWQ9InRpdGxlMjY0NTI3Ij5yZWN0MTU0Mjc8L3RpdGxlPiYjeGE7CQkJCQk8cmVjdCBpZD0icmVjdDI2NDUyOSIgeT0iNjkuMDEiIHN0eWxlPSJmaWxsOiM1NTZBOEE7IiB3aWR0aD0iMi4yNSIgaGVpZ2h0PSIyLjI1Ii8+JiN4YTsJCQkJPC9nPiYjeGE7CQkJCTxnIGlkPSJzaGFwZTExMjExLTI3IiB0cmFuc2Zvcm09InRyYW5zbGF0ZSgwLjc1LC01NCkiPiYjeGE7CQkJCQk8dGl0bGUgaWQ9InRpdGxlMjY0NTMyIj5yZWN0MTU0Mjk8L3RpdGxlPiYjeGE7CQkJCQk8cmVjdCBpZD0icmVjdDI2NDUzNCIgeT0iNjkuMDEiIHN0eWxlPSJmaWxsOiM1NTZBOEE7IiB3aWR0aD0iMi4yNSIgaGVpZ2h0PSIyLjI1Ii8+JiN4YTsJCQkJPC9nPiYjeGE7CQkJCTxnIGlkPSJzaGFwZTExMjEyLTI5IiB0cmFuc2Zvcm09InRyYW5zbGF0ZSgwLjc1LC00OC43NSkiPiYjeGE7CQkJCQk8dGl0bGUgaWQ9InRpdGxlMjY0NTM3Ij5yZWN0MTU0MzE8L3RpdGxlPiYjeGE7CQkJCQk8cmVjdCBpZD0icmVjdDI2NDUzOSIgeT0iNjkuMDEiIHN0eWxlPSJmaWxsOiM1NTZBOEE7IiB3aWR0aD0iMi4yNSIgaGVpZ2h0PSIyLjI1Ii8+JiN4YTsJCQkJPC9nPiYjeGE7CQkJPC9nPiYjeGE7CQkJPGcgaWQ9InNoYXBlMTEyMTMtMzEiIHRyYW5zZm9ybT0idHJhbnNsYXRlKDEzLjY5ODMpIj4mI3hhOwkJCQk8dGl0bGUgaWQ9InRpdGxlMjY0NTQzIj5wb2x5Z29uMTU0MzUuMTE3Mzc8L3RpdGxlPiYjeGE7CQkJCSYjeGE7CQkJCQk8cGF0aCBpZD0icGF0aDI2NDU0NSIgaW5rc2NhcGU6Y29ubmVjdG9yLWN1cnZhdHVyZT0iMCIgc3R5bGU9ImZpbGw6I0ZGRkZGRjtzdHJva2U6IzcwMzBBMDtzdHJva2Utd2lkdGg6MS41O3N0cm9rZS1taXRlcmxpbWl0OjM7IiBkPSIgICAgICBNOC4yNyw3MS4yNkwwLDU3LjAybDguMjctMTQuMjNoMTYuNTVsOC4yNywxNC4yM2wtOC4yNywxNC4yNEg4LjI3eiIvPiYjeGE7CQkJPC9nPiYjeGE7CQk8L2c+JiN4YTsJCTxnIGlkPSJzaGFwZTExMjE0LTMzIiB0cmFuc2Zvcm09InRyYW5zbGF0ZSgxOS4zMzYzLC00LjM2NTcxKSI+JiN4YTsJCQk8dGl0bGUgaWQ9InRpdGxlMjY0NTQ5Ij5WaXN1YWwgU3R1ZGlvICMyPC90aXRsZT4mI3hhOwkJCTxnIGlkPSJzaGFkb3cxMTIxNC0zNCI+JiN4YTsJCQk8L2c+JiN4YTsJCQk8cGF0aCBpZD0icGF0aDI2NDU1MiIgaW5rc2NhcGU6Y29ubmVjdG9yLWN1cnZhdHVyZT0iMCIgc3R5bGU9ImZpbGw6IzY2MkY4RjsiIGQ9Ik0xNS4wNSw1MS4xOWwtNy45Niw3Ljk2TDIuMDEsNTUuMkwwLDU2LjIxICAgICB2MTAuMDNsMi4wMSwxbDUuMDgtMy45NWw3Ljk2LDcuOTdsNS4wMi0yLjAxVjUzLjJMMTUuMDUsNTEuMTl6IE0yLjAxLDY0LjIzdi02LjAybDMuMDEsMy4wMkwyLjAxLDY0LjIzeiBNOS43NSw2MS4yM2w1LjMtNC4xMyAgICAgdjguMjVMOS43NSw2MS4yM3oiLz4mI3hhOwkJPC9nPiYjeGE7CTwvZz4mI3hhOzwvZz4mI3hhOzwvc3ZnPg==;strokeColor=#99FF33;strokeWidth=3;fillColor=#66CC00;" vertex="1" parent="sZor36c5o8YQyrvtszOy-14">
          <mxGeometry x="48.16216216216216" y="70" width="95.9472972972973" height="139.92860785313616" as="geometry" />
        </mxCell>
        <mxCell id="sZor36c5o8YQyrvtszOy-6" value="" style="shape=image;verticalLabelPosition=bottom;labelBackgroundColor=#ffffff;verticalAlign=top;aspect=fixed;imageAspect=0;image=data:image/svg+xml,PHN2ZyB4bWxuczpjYz0iaHR0cDovL2NyZWF0aXZlY29tbW9ucy5vcmcvbnMjIiB4bWxuczpkYz0iaHR0cDovL3B1cmwub3JnL2RjL2VsZW1lbnRzLzEuMS8iIHhtbG5zOmlua3NjYXBlPSJodHRwOi8vd3d3Lmlua3NjYXBlLm9yZy9uYW1lc3BhY2VzL2lua3NjYXBlIiB4bWxuczpyZGY9Imh0dHA6Ly93d3cudzMub3JnLzE5OTkvMDIvMjItcmRmLXN5bnRheC1ucyMiIHhtbG5zOnNvZGlwb2RpPSJodHRwOi8vc29kaXBvZGkuc291cmNlZm9yZ2UubmV0L0RURC9zb2RpcG9kaS0wLmR0ZCIgeG1sbnM6c3ZnPSJodHRwOi8vd3d3LnczLm9yZy8yMDAwL3N2ZyIgeG1sbnM9Imh0dHA6Ly93d3cudzMub3JnLzIwMDAvc3ZnIiB4bWxuczp4bGluaz0iaHR0cDovL3d3dy53My5vcmcvMTk5OS94bGluayIgdmVyc2lvbj0iMS4xIiBpZD0ic3ZnMjYwNjc4IiBpbmtzY2FwZTp2ZXJzaW9uPSIwLjkyLjMgKDI0MDU1NDYsIDIwMTgtMDMtMTEpIiBzb2RpcG9kaTpkb2NuYW1lPSJvcmFjbGVfc2VydmVyLnN2ZyIgeD0iMHB4IiB5PSIwcHgiIHZpZXdCb3g9IjAgMCA0OC40MSA2OS43NiIgc3R5bGU9ImVuYWJsZS1iYWNrZ3JvdW5kOm5ldyAwIDAgNDguNDEgNjkuNzY7IiB4bWw6c3BhY2U9InByZXNlcnZlIj4mI3hhOzxzb2RpcG9kaTpuYW1lZHZpZXcgYm9yZGVyY29sb3I9IiM2NjY2NjYiIGJvcmRlcm9wYWNpdHk9IjEiIGZpdC1tYXJnaW4tYm90dG9tPSIwIiBmaXQtbWFyZ2luLWxlZnQ9IjAiIGZpdC1tYXJnaW4tcmlnaHQ9IjAiIGZpdC1tYXJnaW4tdG9wPSIwIiBncmlkdG9sZXJhbmNlPSIxMCIgZ3VpZGV0b2xlcmFuY2U9IjEwIiBpZD0ibmFtZWR2aWV3MjYwNjgwIiBpbmtzY2FwZTpjdXJyZW50LWxheWVyPSJzdmcyNjA2NzgiIGlua3NjYXBlOmN4PSIzMi4xOTA4OTciIGlua3NjYXBlOmN5PSI0Ni41MDgzNDYiIGlua3NjYXBlOnBhZ2VvcGFjaXR5PSIwIiBpbmtzY2FwZTpwYWdlc2hhZG93PSIyIiBpbmtzY2FwZTp3aW5kb3ctaGVpZ2h0PSIxMDE3IiBpbmtzY2FwZTp3aW5kb3ctbWF4aW1pemVkPSIxIiBpbmtzY2FwZTp3aW5kb3ctd2lkdGg9IjE5MjAiIGlua3NjYXBlOndpbmRvdy14PSItOCIgaW5rc2NhcGU6d2luZG93LXk9Ii04IiBpbmtzY2FwZTp6b29tPSI5LjEyNTM2ODkiIG9iamVjdHRvbGVyYW5jZT0iMTAiIHBhZ2Vjb2xvcj0iI2ZmZmZmZiIgc2hvd2dyaWQ9ImZhbHNlIj4mI3hhOwk8L3NvZGlwb2RpOm5hbWVkdmlldz4mI3hhOzxnIGlkPSJnMjYwNjc2IiB0cmFuc2Zvcm09InRyYW5zbGF0ZSgtMC43NSwtMC43NTAwMzg3OCkiPiYjeGE7CTx0aXRsZSBpZD0idGl0bGUyNjA1NTkiPlBhZ2UtMTwvdGl0bGU+JiN4YTsJPGcgaWQ9Imdyb3VwMTEwMDEtMSIgdHJhbnNmb3JtPSJ0cmFuc2xhdGUoMS41LC0xLjUpIj4mI3hhOwkJPHRpdGxlIGlkPSJ0aXRsZTI2MDU2MSI+T3JhY2xlIFNlcnZlcjwvdGl0bGU+JiN4YTsJCTxnIGlkPSJncm91cDExMDAyLTIiPiYjeGE7CQkJPHRpdGxlIGlkPSJ0aXRsZTI2MDU2MyI+R2VuZXJpYyBTZXJ2aWNlPC90aXRsZT4mI3hhOwkJCTxnIGlkPSJncm91cDExMDAzLTMiIHRyYW5zZm9ybT0idHJhbnNsYXRlKDAsLTAuMDA3Mzk4NzYpIj4mI3hhOwkJCQk8dGl0bGUgaWQ9InRpdGxlMjYwNTY1Ij5nMTU0MzMuMTE3MjE8L3RpdGxlPiYjeGE7CQkJCTxnIGlkPSJzaGFwZTExMDA0LTQiPiYjeGE7CQkJCQk8dGl0bGUgaWQ9InRpdGxlMjYwNTY3Ij5yZWN0MTU0MDU8L3RpdGxlPiYjeGE7CQkJCQkmI3hhOwkJCQkJCTxyZWN0IGlkPSJyZWN0MjYwNTY5IiB5PSIzLjAxIiBzdHlsZT0iZmlsbDojRkZGRkZGO3N0cm9rZTojNTU2QThBO3N0cm9rZS13aWR0aDoxLjU7c3Ryb2tlLW1pdGVybGltaXQ6MzsiIHdpZHRoPSIzOS43NSIgaGVpZ2h0PSI2OC4yNSIvPiYjeGE7CQkJCTwvZz4mI3hhOwkJCQk8ZyBpZD0iZ3JvdXAxMTAwNS02IiB0cmFuc2Zvcm09InRyYW5zbGF0ZSgxLjUsLTAuNzUpIj4mI3hhOwkJCQkJPHRpdGxlIGlkPSJ0aXRsZTI2MDU3MiI+ZzE1NDI1PC90aXRsZT4mI3hhOwkJCQkJPGcgaWQ9InNoYXBlMTEwMDYtNyIgdHJhbnNmb3JtPSJ0cmFuc2xhdGUoMTgpIj4mI3hhOwkJCQkJCTx0aXRsZSBpZD0idGl0bGUyNjA1NzQiPnJlY3QxNTQwNzwvdGl0bGU+JiN4YTsJCQkJCQk8cmVjdCBpZD0icmVjdDI2MDU3NiIgeT0iNC41MSIgc3R5bGU9ImZpbGw6I0U1RTVFNTsiIHdpZHRoPSIxOS41IiBoZWlnaHQ9IjY2Ljc1Ii8+JiN4YTsJCQkJCTwvZz4mI3hhOwkJCQkJPGcgaWQ9InNoYXBlMTEwMDctOSIgdHJhbnNmb3JtPSJ0cmFuc2xhdGUoMCwtNDgpIj4mI3hhOwkJCQkJCTx0aXRsZSBpZD0idGl0bGUyNjA1NzkiPnJlY3QxNTQwOTwvdGl0bGU+JiN4YTsJCQkJCQk8cmVjdCBpZD0icmVjdDI2MDU4MSIgeT0iNjkuMDEiIHN0eWxlPSJmaWxsOiMyQkM3RjQ7IiB3aWR0aD0iMTgiIGhlaWdodD0iMi4yNSIvPiYjeGE7CQkJCQk8L2c+JiN4YTsJCQkJCTxnIGlkPSJzaGFwZTExMDA4LTExIiB0cmFuc2Zvcm09InRyYW5zbGF0ZSgwLC01OC41KSI+JiN4YTsJCQkJCQk8dGl0bGUgaWQ9InRpdGxlMjYwNTg0Ij5wb2x5Z29uMTU0MTE8L3RpdGxlPiYjeGE7CQkJCQkJPHJlY3QgaWQ9InJlY3QyNjA1ODYiIHk9IjY5LjAxIiBzdHlsZT0iZmlsbDpub25lOyIgd2lkdGg9IjI3IiBoZWlnaHQ9IjIuMjUiLz4mI3hhOwkJCQkJPC9nPiYjeGE7CQkJCQk8ZyBpZD0ic2hhcGUxMTAwOS0xMyIgdHJhbnNmb3JtPSJ0cmFuc2xhdGUoMCwtNTguNSkiPiYjeGE7CQkJCQkJPHRpdGxlIGlkPSJ0aXRsZTI2MDU4OSI+cG9seWxpbmUxNTQxMzwvdGl0bGU+JiN4YTsJCQkJCQk8cmVjdCBpZD0icmVjdDI2MDU5MSIgeT0iNjkuMDEiIHN0eWxlPSJmaWxsOm5vbmU7IiB3aWR0aD0iMjciIGhlaWdodD0iMi4yNSIvPiYjeGE7CQkJCQk8L2c+JiN4YTsJCQkJCTxnIGlkPSJzaGFwZTExMDEwLTE1IiB0cmFuc2Zvcm09InRyYW5zbGF0ZSgwLC01My4yNSkiPiYjeGE7CQkJCQkJPHRpdGxlIGlkPSJ0aXRsZTI2MDU5NCI+cmVjdDE1NDE1PC90aXRsZT4mI3hhOwkJCQkJCTxyZWN0IGlkPSJyZWN0MjYwNTk2IiB5PSI2OS4wMSIgc3R5bGU9ImZpbGw6IzJCQzdGNDsiIHdpZHRoPSIxOCIgaGVpZ2h0PSIyLjI1Ii8+JiN4YTsJCQkJCTwvZz4mI3hhOwkJCQkJPGcgaWQ9InNoYXBlMTEwMTEtMTciIHRyYW5zZm9ybT0idHJhbnNsYXRlKDAsLTU4LjUpIj4mI3hhOwkJCQkJCTx0aXRsZSBpZD0idGl0bGUyNjA1OTkiPnJlY3QxNTQxNzwvdGl0bGU+JiN4YTsJCQkJCQk8cmVjdCBpZD0icmVjdDI2MDYwMSIgeT0iNjkuMDEiIHN0eWxlPSJmaWxsOiMyQkM3RjQ7IiB3aWR0aD0iMTgiIGhlaWdodD0iMi4yNSIvPiYjeGE7CQkJCQk8L2c+JiN4YTsJCQkJCTxnIGlkPSJzaGFwZTExMDEyLTE5IiB0cmFuc2Zvcm09InRyYW5zbGF0ZSgxOCwtNDgpIj4mI3hhOwkJCQkJCTx0aXRsZSBpZD0idGl0bGUyNjA2MDQiPnJlY3QxNTQxOTwvdGl0bGU+JiN4YTsJCQkJCQk8cmVjdCBpZD0icmVjdDI2MDYwNiIgeT0iNjkuMDEiIHN0eWxlPSJmaWxsOiM1NTZBOEE7IiB3aWR0aD0iMTkuNSIgaGVpZ2h0PSIyLjI1Ii8+JiN4YTsJCQkJCTwvZz4mI3hhOwkJCQkJPGcgaWQ9InNoYXBlMTEwMTMtMjEiIHRyYW5zZm9ybT0idHJhbnNsYXRlKDE4LC01My4yNSkiPiYjeGE7CQkJCQkJPHRpdGxlIGlkPSJ0aXRsZTI2MDYwOSI+cmVjdDE1NDIxPC90aXRsZT4mI3hhOwkJCQkJCTxyZWN0IGlkPSJyZWN0MjYwNjExIiB5PSI2OS4wMSIgc3R5bGU9ImZpbGw6IzU1NkE4QTsiIHdpZHRoPSIxOS41IiBoZWlnaHQ9IjIuMjUiLz4mI3hhOwkJCQkJPC9nPiYjeGE7CQkJCQk8ZyBpZD0ic2hhcGUxMTAxNC0yMyIgdHJhbnNmb3JtPSJ0cmFuc2xhdGUoMTgsLTU4LjUpIj4mI3hhOwkJCQkJCTx0aXRsZSBpZD0idGl0bGUyNjA2MTQiPnJlY3QxNTQyMzwvdGl0bGU+JiN4YTsJCQkJCQk8cmVjdCBpZD0icmVjdDI2MDYxNiIgeT0iNjkuMDEiIHN0eWxlPSJmaWxsOiM1NTZBOEE7IiB3aWR0aD0iMTkuNSIgaGVpZ2h0PSIyLjI1Ii8+JiN4YTsJCQkJCTwvZz4mI3hhOwkJCQk8L2c+JiN4YTsJCQkJPGcgaWQ9InNoYXBlMTEwMTUtMjUiIHRyYW5zZm9ybT0idHJhbnNsYXRlKDAuNzUsLTU5LjI1KSI+JiN4YTsJCQkJCTx0aXRsZSBpZD0idGl0bGUyNjA2MjAiPnJlY3QxNTQyNzwvdGl0bGU+JiN4YTsJCQkJCTxyZWN0IGlkPSJyZWN0MjYwNjIyIiB5PSI2OS4wMSIgc3R5bGU9ImZpbGw6IzU1NkE4QTsiIHdpZHRoPSIyLjI1IiBoZWlnaHQ9IjIuMjUiLz4mI3hhOwkJCQk8L2c+JiN4YTsJCQkJPGcgaWQ9InNoYXBlMTEwMTYtMjciIHRyYW5zZm9ybT0idHJhbnNsYXRlKDAuNzUsLTU0KSI+JiN4YTsJCQkJCTx0aXRsZSBpZD0idGl0bGUyNjA2MjUiPnJlY3QxNTQyOTwvdGl0bGU+JiN4YTsJCQkJCTxyZWN0IGlkPSJyZWN0MjYwNjI3IiB5PSI2OS4wMSIgc3R5bGU9ImZpbGw6IzU1NkE4QTsiIHdpZHRoPSIyLjI1IiBoZWlnaHQ9IjIuMjUiLz4mI3hhOwkJCQk8L2c+JiN4YTsJCQkJPGcgaWQ9InNoYXBlMTEwMTctMjkiIHRyYW5zZm9ybT0idHJhbnNsYXRlKDAuNzUsLTQ4Ljc1KSI+JiN4YTsJCQkJCTx0aXRsZSBpZD0idGl0bGUyNjA2MzAiPnJlY3QxNTQzMTwvdGl0bGU+JiN4YTsJCQkJCTxyZWN0IGlkPSJyZWN0MjYwNjMyIiB5PSI2OS4wMSIgc3R5bGU9ImZpbGw6IzU1NkE4QTsiIHdpZHRoPSIyLjI1IiBoZWlnaHQ9IjIuMjUiLz4mI3hhOwkJCQk8L2c+JiN4YTsJCQk8L2c+JiN4YTsJCQk8ZyBpZD0ic2hhcGUxMTAxOC0zMSIgdHJhbnNmb3JtPSJ0cmFuc2xhdGUoMTMuNjk4MykiPiYjeGE7CQkJCTx0aXRsZSBpZD0idGl0bGUyNjA2MzYiPnBvbHlnb24xNTQzNS4xMTczNzwvdGl0bGU+JiN4YTsJCQkJJiN4YTsJCQkJCTxwYXRoIGlkPSJwYXRoMjYwNjM4IiBpbmtzY2FwZTpjb25uZWN0b3ItY3VydmF0dXJlPSIwIiBzdHlsZT0iZmlsbDojRkZGRkZGO3N0cm9rZTojRkYwMDAwO3N0cm9rZS13aWR0aDoxLjU7c3Ryb2tlLW1pdGVybGltaXQ6MzsiIGQ9IiAgICAgIE04LjI3LDcxLjI2TDAsNTcuMDJsOC4yNy0xNC4yM2gxNi41NWw4LjI3LDE0LjIzbC04LjI3LDE0LjI0SDguMjd6Ii8+JiN4YTsJCQk8L2c+JiN4YTsJCTwvZz4mI3hhOwkJPGcgaWQ9Imdyb3VwMTEwMTktMzMiIHRyYW5zZm9ybT0idHJhbnNsYXRlKDIxLjc1MjgsLTQuOTI3NzEpIj4mI3hhOwkJCTx0aXRsZSBpZD0idGl0bGUyNjA2NDIiPk9yYWNsZSBEYXRhYmFzZS4zOTIxPC90aXRsZT4mI3hhOwkJCTxnIGlkPSJzaGFwZTExMDIwLTM0IiB0cmFuc2Zvcm09InRyYW5zbGF0ZSgwLC0wLjA2MTQwMDMpIj4mI3hhOwkJCQk8dGl0bGUgaWQ9InRpdGxlMjYwNjQ0Ij5TaGVldC4xMTAyMDwvdGl0bGU+JiN4YTsJCQkJPHBhdGggaWQ9InBhdGgyNjA2NDYiIGlua3NjYXBlOmNvbm5lY3Rvci1jdXJ2YXR1cmU9IjAiIHN0eWxlPSJmaWxsOiNFQjIyMjc7IiBkPSJNOC40Nyw1NC45MkMzLjgxLDU0LjkyLDAsNTQuMjUsMCw1My4zOXYxNi4zMyAgICAgIGMwLDAuODYsMy44MSwxLjU0LDguNDcsMS41NGM0LjY3LDAsOC40OC0wLjY4LDguNDgtMS41NFY1My4zOUMxNy4wMSw1NC4yNSwxMy4yLDU0LjkyLDguNDcsNTQuOTJ6Ii8+JiN4YTsJCQk8L2c+JiN4YTsJCQk8ZyBpZD0ic2hhcGUxMTAyMS0zNiI+JiN4YTsJCQkJPHRpdGxlIGlkPSJ0aXRsZTI2MDY0OSI+U2hlZXQuMTEwMjE8L3RpdGxlPiYjeGE7CQkJCTxwYXRoIGlkPSJwYXRoMjYwNjUxIiBpbmtzY2FwZTpjb25uZWN0b3ItY3VydmF0dXJlPSIwIiBzdHlsZT0iZmlsbDojRDgyMzI4OyIgZD0iTTAsNTMuMzl2MTYuMzNjMCwwLjg2LDMuODEsMS41NCw4LjQ3LDEuNTQgICAgICBWNTQuOTJDMy44MSw1NC44NiwwLDU0LjE5LDAsNTMuMzl6Ii8+JiN4YTsJCQk8L2c+JiN4YTsJCQk8ZyBpZD0ic2hhcGUxMTAyMi0zOCIgdHJhbnNmb3JtPSJ0cmFuc2xhdGUoMTUuODQxMywtMC43OTgyMDMpIj4mI3hhOwkJCQk8dGl0bGUgaWQ9InRpdGxlMjYwNjU0Ij5TaGVldC4xMTAyMjwvdGl0bGU+JiN4YTsJCQkJPHBhdGggaWQ9InBhdGgyNjA2NTYiIGlua3NjYXBlOmNvbm5lY3Rvci1jdXJ2YXR1cmU9IjAiIHN0eWxlPSJmaWxsOiNEODIzMjg7IiBkPSJNMCw1NC45MnYxNi4zNGMwLjc0LTAuMjUsMS4xNy0wLjQ5LDEuMTctMC43NCAgICAgIFY1NC4xOUMxLjE3LDU0LjQzLDAuNzQsNTQuNzQsMCw1NC45MnoiLz4mI3hhOwkJCTwvZz4mI3hhOwkJCTxnIGlkPSJzaGFwZTExMDIzLTQwIiB0cmFuc2Zvcm09InRyYW5zbGF0ZSgwLjA2MTQwMDMsLTE2LjMzMjUpIj4mI3hhOwkJCQk8dGl0bGUgaWQ9InRpdGxlMjYwNjU5Ij5TaGVldC4xMTAyMzwvdGl0bGU+JiN4YTsJCQkJPHBhdGggaWQ9InBhdGgyNjA2NjEiIGlua3NjYXBlOmNvbm5lY3Rvci1jdXJ2YXR1cmU9IjAiIHN0eWxlPSJmaWxsOiNCOTIzMjc7IiBkPSJNMTYuOTUsNjkuNzJjMCwwLjg2LTMuODEsMS41NC04LjQ4LDEuNTQgICAgICBDMy44MSw3MS4yNiwwLDcwLjU4LDAsNjkuNzJzMy44MS0xLjUzLDguNDctMS41M0MxMy4xNCw2OC4xOSwxNi45NSw2OC44NiwxNi45NSw2OS43MnoiLz4mI3hhOwkJCTwvZz4mI3hhOwkJCTxnIGlkPSJzaGFwZTExMDI0LTQyIiB0cmFuc2Zvcm09InRyYW5zbGF0ZSgwLC00Ljg1MDYyKSI+JiN4YTsJCQkJPHRpdGxlIGlkPSJ0aXRsZTI2MDY2NCI+U2hlZXQuMTEwMjQ8L3RpdGxlPiYjeGE7CQkJCTxwYXRoIGlkPSJwYXRoMjYwNjY2IiBpbmtzY2FwZTpjb25uZWN0b3ItY3VydmF0dXJlPSIwIiBzdHlsZT0iZmlsbDojOUExQzIxOyIgZD0iTTAsNjguNDljMCwwLjg2LDMuODEsMS41NCw4LjQ3LDEuNTQgICAgICBjNC42NywwLDguNDgtMC42OCw4LjQ4LTEuNTR2MS4yM2MwLDAuODYtMy44MSwxLjU0LTguNDgsMS41NEMzLjgxLDcxLjI2LDAsNzAuNTgsMCw2OS43MlY2OC40OXoiLz4mI3hhOwkJCTwvZz4mI3hhOwkJCTxnIGlkPSJzaGFwZTExMDI1LTQ0IiB0cmFuc2Zvcm09InRyYW5zbGF0ZSgwLjA2MTQwMDMsLTEwLjI1MzgpIj4mI3hhOwkJCQk8dGl0bGUgaWQ9InRpdGxlMjYwNjY5Ij5TaGVldC4xMTAyNTwvdGl0bGU+JiN4YTsJCQkJPHBhdGggaWQ9InBhdGgyNjA2NzEiIGlua3NjYXBlOmNvbm5lY3Rvci1jdXJ2YXR1cmU9IjAiIHN0eWxlPSJmaWxsOiM5QTFDMjE7IiBkPSJNMTYuOTUsNjguNDljMCwwLjg2LTMuODEsMS41NC04LjQ4LDEuNTQgICAgICBDMy44MSw3MC4wMywwLDY5LjM1LDAsNjguNDl2MS4yM2MwLDAuODYsMy44MSwxLjU0LDguNDcsMS41NGM0LjY3LDAsOC40OC0wLjY4LDguNDgtMS41NFY2OC40OXoiLz4mI3hhOwkJCTwvZz4mI3hhOwkJPC9nPiYjeGE7CTwvZz4mI3hhOzwvZz4mI3hhOzwvc3ZnPg==;strokeColor=#99FF33;strokeWidth=3;fillColor=#66CC00;" vertex="1" parent="sZor36c5o8YQyrvtszOy-14">
          <mxGeometry x="192.64864864864865" y="70" width="95.95604283528812" height="139.92860785313616" as="geometry" />
        </mxCell>
        <mxCell id="sZor36c5o8YQyrvtszOy-7" value="" style="shape=image;verticalLabelPosition=bottom;labelBackgroundColor=#ffffff;verticalAlign=top;aspect=fixed;imageAspect=0;image=data:image/svg+xml,PHN2ZyB4bWxuczpjYz0iaHR0cDovL2NyZWF0aXZlY29tbW9ucy5vcmcvbnMjIiB4bWxuczpkYz0iaHR0cDovL3B1cmwub3JnL2RjL2VsZW1lbnRzLzEuMS8iIHhtbG5zOmlua3NjYXBlPSJodHRwOi8vd3d3Lmlua3NjYXBlLm9yZy9uYW1lc3BhY2VzL2lua3NjYXBlIiB4bWxuczpyZGY9Imh0dHA6Ly93d3cudzMub3JnLzE5OTkvMDIvMjItcmRmLXN5bnRheC1ucyMiIHhtbG5zOnNvZGlwb2RpPSJodHRwOi8vc29kaXBvZGkuc291cmNlZm9yZ2UubmV0L0RURC9zb2RpcG9kaS0wLmR0ZCIgeG1sbnM6c3ZnPSJodHRwOi8vd3d3LnczLm9yZy8yMDAwL3N2ZyIgeG1sbnM9Imh0dHA6Ly93d3cudzMub3JnLzIwMDAvc3ZnIiB4bWxuczp4bGluaz0iaHR0cDovL3d3dy53My5vcmcvMTk5OS94bGluayIgdmVyc2lvbj0iMS4xIiBpZD0ic3ZnMjYzMDcwIiBpbmtzY2FwZTp2ZXJzaW9uPSIwLjkyLjMgKDI0MDU1NDYsIDIwMTgtMDMtMTEpIiBzb2RpcG9kaTpkb2NuYW1lPSJzbXRwX3NlcnZlci5zdmciIHg9IjBweCIgeT0iMHB4IiB2aWV3Qm94PSIwIDAgNDguNDEgNjkuNzYiIHN0eWxlPSJlbmFibGUtYmFja2dyb3VuZDpuZXcgMCAwIDQ4LjQxIDY5Ljc2OyIgeG1sOnNwYWNlPSJwcmVzZXJ2ZSI+JiN4YTs8c29kaXBvZGk6bmFtZWR2aWV3IGJvcmRlcmNvbG9yPSIjNjY2NjY2IiBib3JkZXJvcGFjaXR5PSIxIiBmaXQtbWFyZ2luLWJvdHRvbT0iMCIgZml0LW1hcmdpbi1sZWZ0PSIwIiBmaXQtbWFyZ2luLXJpZ2h0PSIwIiBmaXQtbWFyZ2luLXRvcD0iMCIgZ3JpZHRvbGVyYW5jZT0iMTAiIGd1aWRldG9sZXJhbmNlPSIxMCIgaWQ9Im5hbWVkdmlldzI2MzA3MiIgaW5rc2NhcGU6Y3VycmVudC1sYXllcj0ic3ZnMjYzMDcwIiBpbmtzY2FwZTpjeD0iMzIuMTkwODk3IiBpbmtzY2FwZTpjeT0iNDYuNTA4MzQ2IiBpbmtzY2FwZTpwYWdlb3BhY2l0eT0iMCIgaW5rc2NhcGU6cGFnZXNoYWRvdz0iMiIgaW5rc2NhcGU6d2luZG93LWhlaWdodD0iMTAxNyIgaW5rc2NhcGU6d2luZG93LW1heGltaXplZD0iMSIgaW5rc2NhcGU6d2luZG93LXdpZHRoPSIxOTIwIiBpbmtzY2FwZTp3aW5kb3cteD0iLTgiIGlua3NjYXBlOndpbmRvdy15PSItOCIgaW5rc2NhcGU6em9vbT0iOS4xMjUzNjg5IiBvYmplY3R0b2xlcmFuY2U9IjEwIiBwYWdlY29sb3I9IiNmZmZmZmYiIHNob3dncmlkPSJmYWxzZSI+JiN4YTsJPC9zb2RpcG9kaTpuYW1lZHZpZXc+JiN4YTs8ZyBpZD0iZzI2MzA2OCIgdHJhbnNmb3JtPSJ0cmFuc2xhdGUoLTAuNzUsLTAuNzUwMDM4NzgpIj4mI3hhOwk8dGl0bGUgaWQ9InRpdGxlMjYyOTQ5Ij5QYWdlLTE8L3RpdGxlPiYjeGE7CTxnIGlkPSJncm91cDExMjE1LTEiIHRyYW5zZm9ybT0idHJhbnNsYXRlKDEuNSwtMS41KSI+JiN4YTsJCTx0aXRsZSBpZD0idGl0bGUyNjI5NTEiPlNNVFAgU2VydmVyPC90aXRsZT4mI3hhOwkJPGcgaWQ9Imdyb3VwMTEyMTYtMiI+JiN4YTsJCQk8dGl0bGUgaWQ9InRpdGxlMjYyOTUzIj5HZW5lcmljIFNlcnZpY2UuMTYzMTY8L3RpdGxlPiYjeGE7CQkJPGcgaWQ9Imdyb3VwMTEyMTctMyIgdHJhbnNmb3JtPSJ0cmFuc2xhdGUoMCwtMC4wMDczOTg3NikiPiYjeGE7CQkJCTx0aXRsZSBpZD0idGl0bGUyNjI5NTUiPmcxNTQzMy4xMTcyMTwvdGl0bGU+JiN4YTsJCQkJPGcgaWQ9InNoYXBlMTEyMTgtNCI+JiN4YTsJCQkJCTx0aXRsZSBpZD0idGl0bGUyNjI5NTciPnJlY3QxNTQwNTwvdGl0bGU+JiN4YTsJCQkJCSYjeGE7CQkJCQkJPHJlY3QgaWQ9InJlY3QyNjI5NTkiIHk9IjMuMDEiIHN0eWxlPSJmaWxsOiNGRkZGRkY7c3Ryb2tlOiM1NTZBOEE7c3Ryb2tlLXdpZHRoOjEuNTtzdHJva2UtbWl0ZXJsaW1pdDozOyIgd2lkdGg9IjM5Ljc1IiBoZWlnaHQ9IjY4LjI1Ii8+JiN4YTsJCQkJPC9nPiYjeGE7CQkJCTxnIGlkPSJncm91cDExMjE5LTYiIHRyYW5zZm9ybT0idHJhbnNsYXRlKDEuNSwtMC43NSkiPiYjeGE7CQkJCQk8dGl0bGUgaWQ9InRpdGxlMjYyOTYyIj5nMTU0MjU8L3RpdGxlPiYjeGE7CQkJCQk8ZyBpZD0ic2hhcGUxMTIyMC03IiB0cmFuc2Zvcm09InRyYW5zbGF0ZSgxOCkiPiYjeGE7CQkJCQkJPHRpdGxlIGlkPSJ0aXRsZTI2Mjk2NCI+cmVjdDE1NDA3PC90aXRsZT4mI3hhOwkJCQkJCTxyZWN0IGlkPSJyZWN0MjYyOTY2IiB5PSI0LjUxIiBzdHlsZT0iZmlsbDojRTVFNUU1OyIgd2lkdGg9IjE5LjUiIGhlaWdodD0iNjYuNzUiLz4mI3hhOwkJCQkJPC9nPiYjeGE7CQkJCQk8ZyBpZD0ic2hhcGUxMTIyMS05IiB0cmFuc2Zvcm09InRyYW5zbGF0ZSgwLC00OCkiPiYjeGE7CQkJCQkJPHRpdGxlIGlkPSJ0aXRsZTI2Mjk2OSI+cmVjdDE1NDA5PC90aXRsZT4mI3hhOwkJCQkJCTxyZWN0IGlkPSJyZWN0MjYyOTcxIiB5PSI2OS4wMSIgc3R5bGU9ImZpbGw6IzJCQzdGNDsiIHdpZHRoPSIxOCIgaGVpZ2h0PSIyLjI1Ii8+JiN4YTsJCQkJCTwvZz4mI3hhOwkJCQkJPGcgaWQ9InNoYXBlMTEyMjItMTEiIHRyYW5zZm9ybT0idHJhbnNsYXRlKDAsLTU4LjUpIj4mI3hhOwkJCQkJCTx0aXRsZSBpZD0idGl0bGUyNjI5NzQiPnBvbHlnb24xNTQxMTwvdGl0bGU+JiN4YTsJCQkJCQk8cmVjdCBpZD0icmVjdDI2Mjk3NiIgeT0iNjkuMDEiIHN0eWxlPSJmaWxsOm5vbmU7IiB3aWR0aD0iMjciIGhlaWdodD0iMi4yNSIvPiYjeGE7CQkJCQk8L2c+JiN4YTsJCQkJCTxnIGlkPSJzaGFwZTExMjIzLTEzIiB0cmFuc2Zvcm09InRyYW5zbGF0ZSgwLC01OC41KSI+JiN4YTsJCQkJCQk8dGl0bGUgaWQ9InRpdGxlMjYyOTc5Ij5wb2x5bGluZTE1NDEzPC90aXRsZT4mI3hhOwkJCQkJCTxyZWN0IGlkPSJyZWN0MjYyOTgxIiB5PSI2OS4wMSIgc3R5bGU9ImZpbGw6bm9uZTsiIHdpZHRoPSIyNyIgaGVpZ2h0PSIyLjI1Ii8+JiN4YTsJCQkJCTwvZz4mI3hhOwkJCQkJPGcgaWQ9InNoYXBlMTEyMjQtMTUiIHRyYW5zZm9ybT0idHJhbnNsYXRlKDAsLTUzLjI1KSI+JiN4YTsJCQkJCQk8dGl0bGUgaWQ9InRpdGxlMjYyOTg0Ij5yZWN0MTU0MTU8L3RpdGxlPiYjeGE7CQkJCQkJPHJlY3QgaWQ9InJlY3QyNjI5ODYiIHk9IjY5LjAxIiBzdHlsZT0iZmlsbDojMkJDN0Y0OyIgd2lkdGg9IjE4IiBoZWlnaHQ9IjIuMjUiLz4mI3hhOwkJCQkJPC9nPiYjeGE7CQkJCQk8ZyBpZD0ic2hhcGUxMTIyNS0xNyIgdHJhbnNmb3JtPSJ0cmFuc2xhdGUoMCwtNTguNSkiPiYjeGE7CQkJCQkJPHRpdGxlIGlkPSJ0aXRsZTI2Mjk4OSI+cmVjdDE1NDE3PC90aXRsZT4mI3hhOwkJCQkJCTxyZWN0IGlkPSJyZWN0MjYyOTkxIiB5PSI2OS4wMSIgc3R5bGU9ImZpbGw6IzJCQzdGNDsiIHdpZHRoPSIxOCIgaGVpZ2h0PSIyLjI1Ii8+JiN4YTsJCQkJCTwvZz4mI3hhOwkJCQkJPGcgaWQ9InNoYXBlMTEyMjYtMTkiIHRyYW5zZm9ybT0idHJhbnNsYXRlKDE4LC00OCkiPiYjeGE7CQkJCQkJPHRpdGxlIGlkPSJ0aXRsZTI2Mjk5NCI+cmVjdDE1NDE5PC90aXRsZT4mI3hhOwkJCQkJCTxyZWN0IGlkPSJyZWN0MjYyOTk2IiB5PSI2OS4wMSIgc3R5bGU9ImZpbGw6IzU1NkE4QTsiIHdpZHRoPSIxOS41IiBoZWlnaHQ9IjIuMjUiLz4mI3hhOwkJCQkJPC9nPiYjeGE7CQkJCQk8ZyBpZD0ic2hhcGUxMTIyNy0yMSIgdHJhbnNmb3JtPSJ0cmFuc2xhdGUoMTgsLTUzLjI1KSI+JiN4YTsJCQkJCQk8dGl0bGUgaWQ9InRpdGxlMjYyOTk5Ij5yZWN0MTU0MjE8L3RpdGxlPiYjeGE7CQkJCQkJPHJlY3QgaWQ9InJlY3QyNjMwMDEiIHk9IjY5LjAxIiBzdHlsZT0iZmlsbDojNTU2QThBOyIgd2lkdGg9IjE5LjUiIGhlaWdodD0iMi4yNSIvPiYjeGE7CQkJCQk8L2c+JiN4YTsJCQkJCTxnIGlkPSJzaGFwZTExMjI4LTIzIiB0cmFuc2Zvcm09InRyYW5zbGF0ZSgxOCwtNTguNSkiPiYjeGE7CQkJCQkJPHRpdGxlIGlkPSJ0aXRsZTI2MzAwNCI+cmVjdDE1NDIzPC90aXRsZT4mI3hhOwkJCQkJCTxyZWN0IGlkPSJyZWN0MjYzMDA2IiB5PSI2OS4wMSIgc3R5bGU9ImZpbGw6IzU1NkE4QTsiIHdpZHRoPSIxOS41IiBoZWlnaHQ9IjIuMjUiLz4mI3hhOwkJCQkJPC9nPiYjeGE7CQkJCTwvZz4mI3hhOwkJCQk8ZyBpZD0ic2hhcGUxMTIyOS0yNSIgdHJhbnNmb3JtPSJ0cmFuc2xhdGUoMC43NSwtNTkuMjUpIj4mI3hhOwkJCQkJPHRpdGxlIGlkPSJ0aXRsZTI2MzAxMCI+cmVjdDE1NDI3PC90aXRsZT4mI3hhOwkJCQkJPHJlY3QgaWQ9InJlY3QyNjMwMTIiIHk9IjY5LjAxIiBzdHlsZT0iZmlsbDojNTU2QThBOyIgd2lkdGg9IjIuMjUiIGhlaWdodD0iMi4yNSIvPiYjeGE7CQkJCTwvZz4mI3hhOwkJCQk8ZyBpZD0ic2hhcGUxMTIzMC0yNyIgdHJhbnNmb3JtPSJ0cmFuc2xhdGUoMC43NSwtNTQpIj4mI3hhOwkJCQkJPHRpdGxlIGlkPSJ0aXRsZTI2MzAxNSI+cmVjdDE1NDI5PC90aXRsZT4mI3hhOwkJCQkJPHJlY3QgaWQ9InJlY3QyNjMwMTciIHk9IjY5LjAxIiBzdHlsZT0iZmlsbDojNTU2QThBOyIgd2lkdGg9IjIuMjUiIGhlaWdodD0iMi4yNSIvPiYjeGE7CQkJCTwvZz4mI3hhOwkJCQk8ZyBpZD0ic2hhcGUxMTIzMS0yOSIgdHJhbnNmb3JtPSJ0cmFuc2xhdGUoMC43NSwtNDguNzUpIj4mI3hhOwkJCQkJPHRpdGxlIGlkPSJ0aXRsZTI2MzAyMCI+cmVjdDE1NDMxPC90aXRsZT4mI3hhOwkJCQkJPHJlY3QgaWQ9InJlY3QyNjMwMjIiIHk9IjY5LjAxIiBzdHlsZT0iZmlsbDojNTU2QThBOyIgd2lkdGg9IjIuMjUiIGhlaWdodD0iMi4yNSIvPiYjeGE7CQkJCTwvZz4mI3hhOwkJCTwvZz4mI3hhOwkJCTxnIGlkPSJzaGFwZTExMjMyLTMxIiB0cmFuc2Zvcm09InRyYW5zbGF0ZSgxMy42OTgzKSI+JiN4YTsJCQkJPHRpdGxlIGlkPSJ0aXRsZTI2MzAyNiI+cG9seWdvbjE1NDM1LjExNzM3PC90aXRsZT4mI3hhOwkJCQkmI3hhOwkJCQkJPHBhdGggaWQ9InBhdGgyNjMwMjgiIGlua3NjYXBlOmNvbm5lY3Rvci1jdXJ2YXR1cmU9IjAiIHN0eWxlPSJmaWxsOiNGRkZGRkY7c3Ryb2tlOiM1NTZBOEE7c3Ryb2tlLXdpZHRoOjEuNTtzdHJva2UtbWl0ZXJsaW1pdDozOyIgZD0iICAgICAgTTguMjcsNzEuMjZMMCw1Ny4wMmw4LjI3LTE0LjIzaDE2LjU1bDguMjcsMTQuMjNsLTguMjcsMTQuMjRIOC4yN3oiLz4mI3hhOwkJCTwvZz4mI3hhOwkJPC9nPiYjeGE7CQk8ZyBpZD0iZ3JvdXAxMTIzMy0zMyIgdHJhbnNmb3JtPSJ0cmFuc2xhdGUoMjAuNjk1MiwtNy4yNjExOSkiPiYjeGE7CQkJPHRpdGxlIGlkPSJ0aXRsZTI2MzAzMiI+ZzE3NjEuMTYzMzM8L3RpdGxlPiYjeGE7CQkJPGcgaWQ9InNoYXBlMTEyMzQtMzQiIHRyYW5zZm9ybT0idHJhbnNsYXRlKDAsLTAuMjQ5NTE2KSI+JiN4YTsJCQkJPHRpdGxlIGlkPSJ0aXRsZTI2MzAzNCI+cGF0aDE3NDk8L3RpdGxlPiYjeGE7CQkJCTxwYXRoIGlkPSJwYXRoMjYzMDM2IiBpbmtzY2FwZTpjb25uZWN0b3ItY3VydmF0dXJlPSIwIiBzdHlsZT0iZmlsbDojRkZGRkZGOyIgZD0iTTE5LjE5LDU4LjQzdjEyLjIxYzAsMC4zMy0wLjI3LDAuNjEtMC42LDAuNjEgICAgICBMMC42LDcxLjI2QzAuMjcsNzEuMjUsMCw3MC45OCwwLDcwLjY1bDAtMTIuMjJjMC0wLjA2LDAuMDEtMC4xMiwwLjAzLTAuMThDMC4xMSw1OCwwLjM0LDU3LjgyLDAuNiw1Ny44MmwxNy45OSwwICAgICAgYzAuMTYsMCwwLjMyLDAuMDcsMC40MywwLjE5YzAuMDcsMC4wNywwLjEyLDAuMTcsMC4xNSwwLjI3QzE5LjE4LDU4LjMzLDE5LjE5LDU4LjM4LDE5LjE5LDU4LjQzTDE5LjE5LDU4LjQzeiIvPiYjeGE7CQkJPC9nPiYjeGE7CQkJPGcgaWQ9InNoYXBlMTEyMzUtMzYiIHRyYW5zZm9ybT0idHJhbnNsYXRlKDAsLTAuMTU4MzQ3KSI+JiN4YTsJCQkJPHRpdGxlIGlkPSJ0aXRsZTI2MzAzOSI+cmVjdDE3NTE8L3RpdGxlPiYjeGE7CQkJCTxyZWN0IGlkPSJyZWN0MjYzMDQxIiB4PSIwIiB5PSI1Ny42MSIgc3R5bGU9ImZpbGw6I0U1RTVFNTsiIHdpZHRoPSIxLjkyIiBoZWlnaHQ9IjEzLjY1Ii8+JiN4YTsJCQk8L2c+JiN4YTsJCQk8ZyBpZD0ic2hhcGUxMTIzNi0zOCIgdHJhbnNmb3JtPSJ0cmFuc2xhdGUoMTcuMjc0MikiPiYjeGE7CQkJCTx0aXRsZSBpZD0idGl0bGUyNjMwNDQiPnJlY3QxNzUzPC90aXRsZT4mI3hhOwkJCQk8cmVjdCBpZD0icmVjdDI2MzA0NiIgeD0iMCIgeT0iNTcuNjYiIHN0eWxlPSJmaWxsOiNFNUU1RTU7IiB3aWR0aD0iMS45MiIgaGVpZ2h0PSIxMy41OSIvPiYjeGE7CQkJPC9nPiYjeGE7CQkJPGcgaWQ9InNoYXBlMTEyMzctNDAiIHRyYW5zZm9ybT0idHJhbnNsYXRlKDAuMzExODk1LC03LjY1MzQyKSI+JiN4YTsJCQkJPHRpdGxlIGlkPSJ0aXRsZTI2MzA0OSI+cG9seWdvbjE3NTU8L3RpdGxlPiYjeGE7CQkJCTxwYXRoIGlkPSJwYXRoMjYzMDUxIiBpbmtzY2FwZTpjb25uZWN0b3ItY3VydmF0dXJlPSIwIiBzdHlsZT0iZmlsbDojNTVEMkY2OyIgZD0iTTE4LjU3LDY1LjM3SDBsOS4yOCw1Ljg5TDE4LjU3LDY1LjM3eiIvPiYjeGE7CQkJPC9nPiYjeGE7CQkJPGcgaWQ9InNoYXBlMTEyMzgtNDIiIHRyYW5zZm9ybT0idHJhbnNsYXRlKDAsLTAuMTU4MzQ3KSI+JiN4YTsJCQkJPHRpdGxlIGlkPSJ0aXRsZTI2MzA1NCI+cGF0aDE3NTc8L3RpdGxlPiYjeGE7CQkJCSYjeGE7CQkJCQk8cGF0aCBpZD0icGF0aDI2MzA1NiIgaW5rc2NhcGU6Y29ubmVjdG9yLWN1cnZhdHVyZT0iMCIgc3R5bGU9ImZpbGw6bm9uZTtzdHJva2U6IzU1NkE4QTtzdHJva2Utd2lkdGg6MS41O3N0cm9rZS1taXRlcmxpbWl0OjM7IiBkPSIgICAgICBNMTkuMTksNTguNDR2MTIuMmMwLDAuMzMtMC4yNywwLjYxLTAuNiwwLjYxTDAuNiw3MS4yNkMwLjI3LDcxLjI1LDAsNzAuOTgsMCw3MC42NWwwLTEyLjIxYzAtMC4wNiwwLjAxLTAuMTIsMC4wMy0wLjE4ICAgICAgYzAuMDgtMC4yNSwwLjMxLTAuNDIsMC41Ny0wLjQzbDE3Ljk5LTAuMDFjMC4xNiwwLDAuMzIsMC4wNywwLjQzLDAuMTljMC4wNywwLjA3LDAuMTIsMC4xNywwLjE1LDAuMjcgICAgICBDMTkuMTgsNTguMzMsMTkuMTksNTguMzgsMTkuMTksNTguNDRMMTkuMTksNTguNDR6Ii8+JiN4YTsJCQk8L2c+JiN4YTsJCQk8ZyBpZD0ic2hhcGUxMTIzOS00NCIgdHJhbnNmb3JtPSJ0cmFuc2xhdGUoMC4zMTE4OTUsLTcuNjUzNDIpIj4mI3hhOwkJCQk8dGl0bGUgaWQ9InRpdGxlMjYzMDU5Ij5wb2x5bGluZTE3NTk8L3RpdGxlPiYjeGE7CQkJCTxwYXRoIGlkPSJwYXRoMjYzMDYxIiBpbmtzY2FwZTpjb25uZWN0b3ItY3VydmF0dXJlPSIwIiBzdHlsZT0iZmlsbDpub25lOyIgZD0iTTAsNjUuNjhsOS4yOCw1LjU4bDkuMjktNS41OEgweiIvPiYjeGE7CQkJCSYjeGE7CQkJCQk8cGF0aCBpZD0icGF0aDI2MzA2MyIgaW5rc2NhcGU6Y29ubmVjdG9yLWN1cnZhdHVyZT0iMCIgc3R5bGU9ImZpbGw6bm9uZTtzdHJva2U6IzU1NkE4QTtzdHJva2Utd2lkdGg6MS41O3N0cm9rZS1taXRlcmxpbWl0OjM7IiBkPSIgICAgICBNMCw2NS42OGw5LjI4LDUuNThsOS4yOS01LjU4Ii8+JiN4YTsJCQk8L2c+JiN4YTsJCTwvZz4mI3hhOwk8L2c+JiN4YTs8L2c+JiN4YTs8L3N2Zz4=;strokeColor=#99FF33;strokeWidth=3;fillColor=#66CC00;" vertex="1" parent="sZor36c5o8YQyrvtszOy-14">
          <mxGeometry x="48.16216216216216" y="262.5" width="101.44824069352372" height="147.948266190719" as="geometry" />
        </mxCell>
        <mxCell id="sZor36c5o8YQyrvtszOy-8" value="" style="shape=image;verticalLabelPosition=bottom;labelBackgroundColor=#ffffff;verticalAlign=top;aspect=fixed;imageAspect=0;image=data:image/svg+xml,PHN2ZyB4bWxuczpjYz0iaHR0cDovL2NyZWF0aXZlY29tbW9ucy5vcmcvbnMjIiB4bWxuczpkYz0iaHR0cDovL3B1cmwub3JnL2RjL2VsZW1lbnRzLzEuMS8iIHhtbG5zOmlua3NjYXBlPSJodHRwOi8vd3d3Lmlua3NjYXBlLm9yZy9uYW1lc3BhY2VzL2lua3NjYXBlIiB4bWxuczpyZGY9Imh0dHA6Ly93d3cudzMub3JnLzE5OTkvMDIvMjItcmRmLXN5bnRheC1ucyMiIHhtbG5zOnNvZGlwb2RpPSJodHRwOi8vc29kaXBvZGkuc291cmNlZm9yZ2UubmV0L0RURC9zb2RpcG9kaS0wLmR0ZCIgeG1sbnM6c3ZnPSJodHRwOi8vd3d3LnczLm9yZy8yMDAwL3N2ZyIgeG1sbnM9Imh0dHA6Ly93d3cudzMub3JnLzIwMDAvc3ZnIiB4bWxuczp4bGluaz0iaHR0cDovL3d3dy53My5vcmcvMTk5OS94bGluayIgdmVyc2lvbj0iMS4xIiBpZD0ic3ZnMjU0OTQ2IiBpbmtzY2FwZTp2ZXJzaW9uPSIwLjkyLjMgKDI0MDU1NDYsIDIwMTgtMDMtMTEpIiBzb2RpcG9kaTpkb2NuYW1lPSJiaXp0YWxrX3NlcnZlci5zdmciIHg9IjBweCIgeT0iMHB4IiB2aWV3Qm94PSIwIDAgNDguNDEgNjkuNzYiIHN0eWxlPSJlbmFibGUtYmFja2dyb3VuZDpuZXcgMCAwIDQ4LjQxIDY5Ljc2OyIgeG1sOnNwYWNlPSJwcmVzZXJ2ZSI+JiN4YTs8c29kaXBvZGk6bmFtZWR2aWV3IGJvcmRlcmNvbG9yPSIjNjY2NjY2IiBib3JkZXJvcGFjaXR5PSIxIiBmaXQtbWFyZ2luLWJvdHRvbT0iMCIgZml0LW1hcmdpbi1sZWZ0PSIwIiBmaXQtbWFyZ2luLXJpZ2h0PSIwIiBmaXQtbWFyZ2luLXRvcD0iMCIgZ3JpZHRvbGVyYW5jZT0iMTAiIGd1aWRldG9sZXJhbmNlPSIxMCIgaWQ9Im5hbWVkdmlldzI1NDk0OCIgaW5rc2NhcGU6Y3VycmVudC1sYXllcj0ic3ZnMjU0OTQ2IiBpbmtzY2FwZTpjeD0iMzcuMzUyODY1IiBpbmtzY2FwZTpjeT0iMzkuNDI1MjAyIiBpbmtzY2FwZTpwYWdlb3BhY2l0eT0iMCIgaW5rc2NhcGU6cGFnZXNoYWRvdz0iMiIgaW5rc2NhcGU6d2luZG93LWhlaWdodD0iMTAxNyIgaW5rc2NhcGU6d2luZG93LW1heGltaXplZD0iMSIgaW5rc2NhcGU6d2luZG93LXdpZHRoPSIxOTIwIiBpbmtzY2FwZTp3aW5kb3cteD0iLTgiIGlua3NjYXBlOndpbmRvdy15PSItOCIgaW5rc2NhcGU6em9vbT0iNy45NDE1ODUiIG9iamVjdHRvbGVyYW5jZT0iMTAiIHBhZ2Vjb2xvcj0iI2ZmZmZmZiIgc2hvd2dyaWQ9ImZhbHNlIj4mI3hhOwk8L3NvZGlwb2RpOm5hbWVkdmlldz4mI3hhOzxnIGlkPSJnMjU0OTQ0IiB0cmFuc2Zvcm09InRyYW5zbGF0ZSgtMC43NSwtMC43NTAwNjIzKSI+JiN4YTsJPHRpdGxlIGlkPSJ0aXRsZTI1NDgwNyI+UGFnZS0xPC90aXRsZT4mI3hhOwk8ZyBpZD0iZ3JvdXAxMDg4My0xIiB0cmFuc2Zvcm09InRyYW5zbGF0ZSgxLjUsLTEyLjEyMTYpIj4mI3hhOwkJPHRpdGxlIGlkPSJ0aXRsZTI1NDgwOSI+Qml6VGFsayBTZXJ2ZXI8L3RpdGxlPiYjeGE7CQk8ZyBpZD0iZ3JvdXAxMDg4NC0yIj4mI3hhOwkJCTx0aXRsZSBpZD0idGl0bGUyNTQ4MTEiPkdlbmVyaWMgU2VydmljZTwvdGl0bGU+JiN4YTsJCQk8ZyBpZD0iZ3JvdXAxMDg4NS0zIiB0cmFuc2Zvcm09InRyYW5zbGF0ZSgwLC0wLjAwNzM5ODc2KSI+JiN4YTsJCQkJPHRpdGxlIGlkPSJ0aXRsZTI1NDgxMyI+ZzE1NDMzLjExNzIxPC90aXRsZT4mI3hhOwkJCQk8ZyBpZD0ic2hhcGUxMDg4Ni00Ij4mI3hhOwkJCQkJPHRpdGxlIGlkPSJ0aXRsZTI1NDgxNSI+cmVjdDE1NDA1PC90aXRsZT4mI3hhOwkJCQkJJiN4YTsJCQkJCQk8cmVjdCBpZD0icmVjdDI1NDgxNyIgeT0iMTMuNjMiIHN0eWxlPSJmaWxsOiNGRkZGRkY7c3Ryb2tlOiM1NTZBOEE7c3Ryb2tlLXdpZHRoOjEuNTtzdHJva2UtbWl0ZXJsaW1pdDozOyIgd2lkdGg9IjM5Ljc1IiBoZWlnaHQ9IjY4LjI1Ii8+JiN4YTsJCQkJPC9nPiYjeGE7CQkJCTxnIGlkPSJncm91cDEwODg3LTYiIHRyYW5zZm9ybT0idHJhbnNsYXRlKDEuNSwtMC43NSkiPiYjeGE7CQkJCQk8dGl0bGUgaWQ9InRpdGxlMjU0ODIwIj5nMTU0MjU8L3RpdGxlPiYjeGE7CQkJCQk8ZyBpZD0ic2hhcGUxMDg4OC03IiB0cmFuc2Zvcm09InRyYW5zbGF0ZSgxOCkiPiYjeGE7CQkJCQkJPHRpdGxlIGlkPSJ0aXRsZTI1NDgyMiI+cmVjdDE1NDA3PC90aXRsZT4mI3hhOwkJCQkJCTxyZWN0IGlkPSJyZWN0MjU0ODI0IiB5PSIxNS4xMyIgc3R5bGU9ImZpbGw6I0U1RTVFNTsiIHdpZHRoPSIxOS41IiBoZWlnaHQ9IjY2Ljc1Ii8+JiN4YTsJCQkJCTwvZz4mI3hhOwkJCQkJPGcgaWQ9InNoYXBlMTA4ODktOSIgdHJhbnNmb3JtPSJ0cmFuc2xhdGUoMCwtNDgpIj4mI3hhOwkJCQkJCTx0aXRsZSBpZD0idGl0bGUyNTQ4MjciPnJlY3QxNTQwOTwvdGl0bGU+JiN4YTsJCQkJCQk8cmVjdCBpZD0icmVjdDI1NDgyOSIgeT0iNzkuNjMiIHN0eWxlPSJmaWxsOiMyQkM3RjQ7IiB3aWR0aD0iMTgiIGhlaWdodD0iMi4yNSIvPiYjeGE7CQkJCQk8L2c+JiN4YTsJCQkJCTxnIGlkPSJzaGFwZTEwODkwLTExIiB0cmFuc2Zvcm09InRyYW5zbGF0ZSgwLC01OC41KSI+JiN4YTsJCQkJCQk8dGl0bGUgaWQ9InRpdGxlMjU0ODMyIj5wb2x5Z29uMTU0MTE8L3RpdGxlPiYjeGE7CQkJCQkJPHJlY3QgaWQ9InJlY3QyNTQ4MzQiIHk9Ijc5LjYzIiBzdHlsZT0iZmlsbDpub25lOyIgd2lkdGg9IjI3IiBoZWlnaHQ9IjIuMjUiLz4mI3hhOwkJCQkJPC9nPiYjeGE7CQkJCQk8ZyBpZD0ic2hhcGUxMDg5MS0xMyIgdHJhbnNmb3JtPSJ0cmFuc2xhdGUoMCwtNTguNSkiPiYjeGE7CQkJCQkJPHRpdGxlIGlkPSJ0aXRsZTI1NDgzNyI+cG9seWxpbmUxNTQxMzwvdGl0bGU+JiN4YTsJCQkJCQk8cmVjdCBpZD0icmVjdDI1NDgzOSIgeT0iNzkuNjMiIHN0eWxlPSJmaWxsOm5vbmU7IiB3aWR0aD0iMjciIGhlaWdodD0iMi4yNSIvPiYjeGE7CQkJCQk8L2c+JiN4YTsJCQkJCTxnIGlkPSJzaGFwZTEwODkyLTE1IiB0cmFuc2Zvcm09InRyYW5zbGF0ZSgwLC01My4yNSkiPiYjeGE7CQkJCQkJPHRpdGxlIGlkPSJ0aXRsZTI1NDg0MiI+cmVjdDE1NDE1PC90aXRsZT4mI3hhOwkJCQkJCTxyZWN0IGlkPSJyZWN0MjU0ODQ0IiB5PSI3OS42MyIgc3R5bGU9ImZpbGw6IzJCQzdGNDsiIHdpZHRoPSIxOCIgaGVpZ2h0PSIyLjI1Ii8+JiN4YTsJCQkJCTwvZz4mI3hhOwkJCQkJPGcgaWQ9InNoYXBlMTA4OTMtMTciIHRyYW5zZm9ybT0idHJhbnNsYXRlKDAsLTU4LjUpIj4mI3hhOwkJCQkJCTx0aXRsZSBpZD0idGl0bGUyNTQ4NDciPnJlY3QxNTQxNzwvdGl0bGU+JiN4YTsJCQkJCQk8cmVjdCBpZD0icmVjdDI1NDg0OSIgeT0iNzkuNjMiIHN0eWxlPSJmaWxsOiMyQkM3RjQ7IiB3aWR0aD0iMTgiIGhlaWdodD0iMi4yNSIvPiYjeGE7CQkJCQk8L2c+JiN4YTsJCQkJCTxnIGlkPSJzaGFwZTEwODk0LTE5IiB0cmFuc2Zvcm09InRyYW5zbGF0ZSgxOCwtNDgpIj4mI3hhOwkJCQkJCTx0aXRsZSBpZD0idGl0bGUyNTQ4NTIiPnJlY3QxNTQxOTwvdGl0bGU+JiN4YTsJCQkJCQk8cmVjdCBpZD0icmVjdDI1NDg1NCIgeT0iNzkuNjMiIHN0eWxlPSJmaWxsOiM1NTZBOEE7IiB3aWR0aD0iMTkuNSIgaGVpZ2h0PSIyLjI1Ii8+JiN4YTsJCQkJCTwvZz4mI3hhOwkJCQkJPGcgaWQ9InNoYXBlMTA4OTUtMjEiIHRyYW5zZm9ybT0idHJhbnNsYXRlKDE4LC01My4yNSkiPiYjeGE7CQkJCQkJPHRpdGxlIGlkPSJ0aXRsZTI1NDg1NyI+cmVjdDE1NDIxPC90aXRsZT4mI3hhOwkJCQkJCTxyZWN0IGlkPSJyZWN0MjU0ODU5IiB5PSI3OS42MyIgc3R5bGU9ImZpbGw6IzU1NkE4QTsiIHdpZHRoPSIxOS41IiBoZWlnaHQ9IjIuMjUiLz4mI3hhOwkJCQkJPC9nPiYjeGE7CQkJCQk8ZyBpZD0ic2hhcGUxMDg5Ni0yMyIgdHJhbnNmb3JtPSJ0cmFuc2xhdGUoMTgsLTU4LjUpIj4mI3hhOwkJCQkJCTx0aXRsZSBpZD0idGl0bGUyNTQ4NjIiPnJlY3QxNTQyMzwvdGl0bGU+JiN4YTsJCQkJCQk8cmVjdCBpZD0icmVjdDI1NDg2NCIgeT0iNzkuNjMiIHN0eWxlPSJmaWxsOiM1NTZBOEE7IiB3aWR0aD0iMTkuNSIgaGVpZ2h0PSIyLjI1Ii8+JiN4YTsJCQkJCTwvZz4mI3hhOwkJCQk8L2c+JiN4YTsJCQkJPGcgaWQ9InNoYXBlMTA4OTctMjUiIHRyYW5zZm9ybT0idHJhbnNsYXRlKDAuNzUsLTU5LjI1KSI+JiN4YTsJCQkJCTx0aXRsZSBpZD0idGl0bGUyNTQ4NjgiPnJlY3QxNTQyNzwvdGl0bGU+JiN4YTsJCQkJCTxyZWN0IGlkPSJyZWN0MjU0ODcwIiB5PSI3OS42MyIgc3R5bGU9ImZpbGw6IzU1NkE4QTsiIHdpZHRoPSIyLjI1IiBoZWlnaHQ9IjIuMjUiLz4mI3hhOwkJCQk8L2c+JiN4YTsJCQkJPGcgaWQ9InNoYXBlMTA4OTgtMjciIHRyYW5zZm9ybT0idHJhbnNsYXRlKDAuNzUsLTU0KSI+JiN4YTsJCQkJCTx0aXRsZSBpZD0idGl0bGUyNTQ4NzMiPnJlY3QxNTQyOTwvdGl0bGU+JiN4YTsJCQkJCTxyZWN0IGlkPSJyZWN0MjU0ODc1IiB5PSI3OS42MyIgc3R5bGU9ImZpbGw6IzU1NkE4QTsiIHdpZHRoPSIyLjI1IiBoZWlnaHQ9IjIuMjUiLz4mI3hhOwkJCQk8L2c+JiN4YTsJCQkJPGcgaWQ9InNoYXBlMTA4OTktMjkiIHRyYW5zZm9ybT0idHJhbnNsYXRlKDAuNzUsLTQ4Ljc1KSI+JiN4YTsJCQkJCTx0aXRsZSBpZD0idGl0bGUyNTQ4NzgiPnJlY3QxNTQzMTwvdGl0bGU+JiN4YTsJCQkJCTxyZWN0IGlkPSJyZWN0MjU0ODgwIiB5PSI3OS42MyIgc3R5bGU9ImZpbGw6IzU1NkE4QTsiIHdpZHRoPSIyLjI1IiBoZWlnaHQ9IjIuMjUiLz4mI3hhOwkJCQk8L2c+JiN4YTsJCQk8L2c+JiN4YTsJCQk8ZyBpZD0ic2hhcGUxMDkwMC0zMSIgdHJhbnNmb3JtPSJ0cmFuc2xhdGUoMTMuNjk4MykiPiYjeGE7CQkJCTx0aXRsZSBpZD0idGl0bGUyNTQ4ODQiPnBvbHlnb24xNTQzNS4xMTczNzwvdGl0bGU+JiN4YTsJCQkJJiN4YTsJCQkJCTxwYXRoIGlkPSJwYXRoMjU0ODg2IiBpbmtzY2FwZTpjb25uZWN0b3ItY3VydmF0dXJlPSIwIiBzdHlsZT0iZmlsbDojRkZGRkZGO3N0cm9rZTojNDQ0NzhGO3N0cm9rZS13aWR0aDoxLjU7c3Ryb2tlLW1pdGVybGltaXQ6MzsiIGQ9IiAgICAgIE04LjI3LDgxLjg4TDAsNjcuNjRsOC4yNy0xNC4yM2gxNi41NWw4LjI3LDE0LjIzbC04LjI3LDE0LjI0SDguMjd6Ii8+JiN4YTsJCQk8L2c+JiN4YTsJCTwvZz4mI3hhOwkJPGcgaWQ9Imdyb3VwMTA5MDEtMzMiIHRyYW5zZm9ybT0idHJhbnNsYXRlKDIwLjY5NzksLTQuNDg5OTcpIj4mI3hhOwkJCTx0aXRsZSBpZD0idGl0bGUyNTQ4OTAiPlNoZWV0LjEwOTAxPC90aXRsZT4mI3hhOwkJCTxnIGlkPSJzaGFwZTEwOTAyLTM0Ij4mI3hhOwkJCQk8dGl0bGUgaWQ9InRpdGxlMjU0ODkyIj5TaGVldC4xMDkwMjwvdGl0bGU+JiN4YTsJCQkJPHBhdGggaWQ9InBhdGgyNTQ4OTQiIGlua3NjYXBlOmNvbm5lY3Rvci1jdXJ2YXR1cmU9IjAiIHN0eWxlPSJmaWxsOiMzRjQ3OTA7IiBkPSJNMTYuODUsNjIuNDJjLTE0LjI2LDAtMTQuMjYsMC0xNC4yNiwwICAgICAgYy0xLjQsMC0yLjU5LDEuMTYtMi41OSwyLjYyYzAsMy40NiwwLDMuNDYsMCwzLjQ2YzAsMTAuNzgsMCwxMC43OCwwLDEwLjc4YzAsMS40NiwxLjE5LDIuNiwyLjU5LDIuNmMxNC4yNiwwLDE0LjI2LDAsMTQuMjYsMCAgICAgIGMxLjQyLDAsMi41OS0xLjE0LDIuNTktMi42YzAtMTAuNzgsMC0xMC43OCwwLTEwLjc4YzAtMy40NiwwLTMuNDYsMC0zLjQ2QzE5LjQ0LDYzLjU4LDE4LjI3LDYyLjQyLDE2Ljg1LDYyLjQyeiIvPiYjeGE7CQkJPC9nPiYjeGE7CQkJPGcgaWQ9Imdyb3VwMTA5MDMtMzYiIHRyYW5zZm9ybT0idHJhbnNsYXRlKDMuMjMzMjksLTIuNTEzNDUpIj4mI3hhOwkJCQk8dGl0bGUgaWQ9InRpdGxlMjU0ODk3Ij5TaGVldC4xMDkwMzwvdGl0bGU+JiN4YTsJCQkJPGcgaWQ9InNoYXBlMTA5MDQtMzciPiYjeGE7CQkJCQk8dGl0bGUgaWQ9InRpdGxlMjU0ODk5Ij5TaGVldC4xMDkwNDwvdGl0bGU+JiN4YTsJCQkJCTxnIGlkPSJzaGFkb3cxMDkwNC0zOCI+JiN4YTsJCQkJCTwvZz4mI3hhOwkJCQkJPGNpcmNsZSBpZD0iZWxsaXBzZTI1NDkwMiIgc3R5bGU9ImZpbGw6I0ZGRkZGRjsiIGN4PSIxLjg3IiBjeT0iODAuMDEiIHI9IjEuODciLz4mI3hhOwkJCQk8L2c+JiN4YTsJCQkJPGcgaWQ9InNoYXBlMTA5MDUtNDAiIHRyYW5zZm9ybT0idHJhbnNsYXRlKDEuMjUwOCwtNi4xODI4MikiPiYjeGE7CQkJCQk8dGl0bGUgaWQ9InRpdGxlMjU0OTA1Ij5TaGVldC4xMDkwNTwvdGl0bGU+JiN4YTsJCQkJCTxnIGlkPSJzaGFkb3cxMDkwNS00MSI+JiN4YTsJCQkJCTwvZz4mI3hhOwkJCQkJPHJlY3QgaWQ9InJlY3QyNTQ5MDgiIHg9IjAiIHk9IjgwLjYyIiBzdHlsZT0iZmlsbDojRkZGRkZGOyIgd2lkdGg9IjEwLjM2IiBoZWlnaHQ9IjEuMjYiLz4mI3hhOwkJCQk8L2c+JiN4YTsJCQkJPGcgaWQ9InNoYXBlMTA5MDYtNDMiIHRyYW5zZm9ybT0idHJhbnNsYXRlKDQuMzc5MTEsLTEwLjY4ODEpIj4mI3hhOwkJCQkJPHRpdGxlIGlkPSJ0aXRsZTI1NDkxMSI+U2hlZXQuMTA5MDY8L3RpdGxlPiYjeGE7CQkJCQk8ZyBpZD0ic2hhZG93MTA5MDYtNDQiPiYjeGE7CQkJCQk8L2c+JiN4YTsJCQkJCTxjaXJjbGUgaWQ9ImVsbGlwc2UyNTQ5MTQiIHN0eWxlPSJmaWxsOiNGRkZGRkY7IiBjeD0iMS44NyIgY3k9IjgwLjAxIiByPSIxLjg3Ii8+JiN4YTsJCQkJPC9nPiYjeGE7CQkJCTxnIGlkPSJzaGFwZTEwOTA3LTQ2IiB0cmFuc2Zvcm09InRyYW5zbGF0ZSg5LjIzMTYzKSI+JiN4YTsJCQkJCTx0aXRsZSBpZD0idGl0bGUyNTQ5MTciPlNoZWV0LjEwOTA3PC90aXRsZT4mI3hhOwkJCQkJPGcgaWQ9InNoYWRvdzEwOTA3LTQ3Ij4mI3hhOwkJCQkJPC9nPiYjeGE7CQkJCQk8Y2lyY2xlIGlkPSJlbGxpcHNlMjU0OTIwIiBzdHlsZT0iZmlsbDojRkZGRkZGOyIgY3g9IjEuODciIGN5PSI4MC4wMSIgcj0iMS44NyIvPiYjeGE7CQkJCTwvZz4mI3hhOwkJCQk8ZyBpZD0ic2hhcGUxMDkwOC00OSIgdHJhbnNmb3JtPSJyb3RhdGUoLTkwLDAuMDA3NjUsNzkuMzg2NjUpIj4mI3hhOwkJCQkJPHRpdGxlIGlkPSJ0aXRsZTI1NDkyMyI+U2hlZXQuMTA5MDg8L3RpdGxlPiYjeGE7CQkJCQk8ZyBpZD0ic2hhZG93MTA5MDgtNTAiPiYjeGE7CQkJCQk8L2c+JiN4YTsJCQkJCSYjeGE7CQkJCQkJPHJlY3QgaWQ9InJlY3QyNTQ5MjYiIHg9IjEuODUiIHk9Ijc4Ljc3IiB0cmFuc2Zvcm09Im1hdHJpeCgtMi41MzUxODJlLTA2IC0xIDEgLTIuNTM1MTgyZS0wNiAtNzguNzcxNiA4My43MjgyKSIgc3R5bGU9ImZpbGw6I0ZGRkZGRjsiIHdpZHRoPSIxLjI2IiBoZWlnaHQ9IjQuOTYiLz4mI3hhOwkJCQk8L2c+JiN4YTsJCQkJPGcgaWQ9InNoYXBlMTA5MDktNTIiIHRyYW5zZm9ybT0icm90YXRlKDkwLDguODExNyw3OC43MDA0KSI+JiN4YTsJCQkJCTx0aXRsZSBpZD0idGl0bGUyNTQ5MjkiPlNoZWV0LjEwOTA5PC90aXRsZT4mI3hhOwkJCQkJPGcgaWQ9InNoYWRvdzEwOTA5LTUzIj4mI3hhOwkJCQkJPC9nPiYjeGE7CQkJCQkmI3hhOwkJCQkJCTxyZWN0IGlkPSJyZWN0MjU0OTMyIiB4PSIyLjA5IiB5PSI3OC41MyIgdHJhbnNmb3JtPSJtYXRyaXgoMi41MzUxODJlLTA2IDEgLTEgMi41MzUxODJlLTA2IDgzLjk3MjEgNzguNTI3MykiIHN0eWxlPSJmaWxsOiNGRkZGRkY7IiB3aWR0aD0iMS4yNiIgaGVpZ2h0PSI1LjQ0Ii8+JiN4YTsJCQkJPC9nPiYjeGE7CQkJCTxnIGlkPSJzaGFwZTEwOTEwLTU1IiB0cmFuc2Zvcm09InJvdGF0ZSgtOTAsNC41NzA4NSw3NC44Mzg0NSkiPiYjeGE7CQkJCQk8dGl0bGUgaWQ9InRpdGxlMjU0OTM1Ij5TaGVldC4xMDkxMDwvdGl0bGU+JiN4YTsJCQkJCTxnIGlkPSJzaGFkb3cxMDkxMC01NiI+JiN4YTsJCQkJCTwvZz4mI3hhOwkJCQkJJiN4YTsJCQkJCQk8cmVjdCBpZD0icmVjdDI1NDkzOCIgeD0iMS44NSIgeT0iNzguNzciIHRyYW5zZm9ybT0ibWF0cml4KC0yLjUzNTE4MmUtMDYgLTEgMSAtMi41MzUxODJlLTA2IC03OC43NzE2IDgzLjcyODIpIiBzdHlsZT0iZmlsbDojRkZGRkZGOyIgd2lkdGg9IjEuMjYiIGhlaWdodD0iNC45NiIvPiYjeGE7CQkJCTwvZz4mI3hhOwkJCTwvZz4mI3hhOwkJPC9nPiYjeGE7CTwvZz4mI3hhOzwvZz4mI3hhOzwvc3ZnPg==;strokeColor=#99FF33;strokeWidth=3;fillColor=#66CC00;" vertex="1" parent="sZor36c5o8YQyrvtszOy-14">
          <mxGeometry x="190.86486486486484" y="262.5" width="101.94673635900051" height="148.67414584395718" as="geometry" />
        </mxCell>
        <mxCell id="sZor36c5o8YQyrvtszOy-9" value="CAdvisor Cluster" style="text;strokeColor=none;fillColor=none;html=1;fontSize=24;fontStyle=1;verticalAlign=middle;align=center;" vertex="1" parent="sZor36c5o8YQyrvtszOy-14">
          <mxGeometry x="121.29729729729729" y="17.5" width="89.1891891891892" height="35" as="geometry" />
        </mxCell>
        <mxCell id="sZor36c5o8YQyrvtszOy-13" value="Service Container" style="text;strokeColor=none;fillColor=none;html=1;fontSize=24;fontStyle=1;verticalAlign=middle;align=center;dashed=1;" vertex="1" parent="sZor36c5o8YQyrvtszOy-14">
          <mxGeometry x="123.97297297297297" y="420" width="89.1891891891892" height="35" as="geometry" />
        </mxCell>
        <mxCell id="sZor36c5o8YQyrvtszOy-18" value="" style="shape=image;verticalLabelPosition=bottom;labelBackgroundColor=#ffffff;verticalAlign=top;aspect=fixed;imageAspect=0;image=data:image/svg+xml,PHN2ZyB4bWxuczpjYz0iaHR0cDovL2NyZWF0aXZlY29tbW9ucy5vcmcvbnMjIiB4bWxuczpkYz0iaHR0cDovL3B1cmwub3JnL2RjL2VsZW1lbnRzLzEuMS8iIHhtbG5zOmlua3NjYXBlPSJodHRwOi8vd3d3Lmlua3NjYXBlLm9yZy9uYW1lc3BhY2VzL2lua3NjYXBlIiB4bWxuczpyZGY9Imh0dHA6Ly93d3cudzMub3JnLzE5OTkvMDIvMjItcmRmLXN5bnRheC1ucyMiIHhtbG5zOnNvZGlwb2RpPSJodHRwOi8vc29kaXBvZGkuc291cmNlZm9yZ2UubmV0L0RURC9zb2RpcG9kaS0wLmR0ZCIgeG1sbnM6c3ZnPSJodHRwOi8vd3d3LnczLm9yZy8yMDAwL3N2ZyIgeG1sbnM9Imh0dHA6Ly93d3cudzMub3JnLzIwMDAvc3ZnIiB4bWxuczp4bGluaz0iaHR0cDovL3d3dy53My5vcmcvMTk5OS94bGluayIgdmVyc2lvbj0iMS4xIiBpZD0ic3ZnMjU4MzAiIHg9IjBweCIgeT0iMHB4IiB2aWV3Qm94PSIwIDAgNTMuMjYgMzkiIHN0eWxlPSJlbmFibGUtYmFja2dyb3VuZDpuZXcgMCAwIDUzLjI2IDM5OyIgeG1sOnNwYWNlPSJwcmVzZXJ2ZSI+JiN4YTs8c29kaXBvZGk6bmFtZWR2aWV3IGJvcmRlcmNvbG9yPSIjNjY2NjY2IiBib3JkZXJvcGFjaXR5PSIxIiBmaXQtbWFyZ2luLWJvdHRvbT0iMCIgZml0LW1hcmdpbi1sZWZ0PSIwIiBmaXQtbWFyZ2luLXJpZ2h0PSIwIiBmaXQtbWFyZ2luLXRvcD0iMCIgZ3JpZHRvbGVyYW5jZT0iMTAiIGd1aWRldG9sZXJhbmNlPSIxMCIgaWQ9Im5hbWVkdmlldzI1ODMyIiBpbmtzY2FwZTpjdXJyZW50LWxheWVyPSJzdmcyNTgzMCIgaW5rc2NhcGU6Y3g9IjM1LjUwNDIwOCIgaW5rc2NhcGU6Y3k9IjI2LjAwMjY3MyIgaW5rc2NhcGU6cGFnZW9wYWNpdHk9IjAiIGlua3NjYXBlOnBhZ2VzaGFkb3c9IjIiIGlua3NjYXBlOndpbmRvdy1oZWlnaHQ9IjEwMTciIGlua3NjYXBlOndpbmRvdy1tYXhpbWl6ZWQ9IjEiIGlua3NjYXBlOndpbmRvdy13aWR0aD0iMTkyMCIgaW5rc2NhcGU6d2luZG93LXg9Ii04IiBpbmtzY2FwZTp3aW5kb3cteT0iLTgiIGlua3NjYXBlOnpvb209IjE2LjY3NDc5IiBvYmplY3R0b2xlcmFuY2U9IjEwIiBwYWdlY29sb3I9IiNmZmZmZmYiIHNob3dncmlkPSJmYWxzZSI+JiN4YTsJPC9zb2RpcG9kaTpuYW1lZHZpZXc+JiN4YTs8ZyBpZD0iZzI1ODI4Ij4mI3hhOwk8dGl0bGUgaWQ9InRpdGxlMjU0MzMiPlBhZ2UtMTwvdGl0bGU+JiN4YTsJPGcgaWQ9Imdyb3VwMTY4Ny0xIj4mI3hhOwkJPHRpdGxlIGlkPSJ0aXRsZTI1NDM1Ij5BenVyZSBEYXNoYm9hcmQ8L3RpdGxlPiYjeGE7CQk8ZyBpZD0iZ3JvdXAxNjg4LTIiPiYjeGE7CQkJPHRpdGxlIGlkPSJ0aXRsZTI1NDM3Ij5CdXNpbmVzcyBSdWxlcyBFbmdpbmUuNDAwMjwvdGl0bGU+JiN4YTsJCQk8ZyBpZD0ic2hhcGUxNjg5LTMiPiYjeGE7CQkJCTx0aXRsZSBpZD0idGl0bGUyNTQzOSI+U2hlZXQuMTY4OTwvdGl0bGU+JiN4YTsJCQkJPHBhdGggaWQ9InBhdGgyNTQ0MSIgaW5rc2NhcGU6Y29ubmVjdG9yLWN1cnZhdHVyZT0iMCIgc3R5bGU9ImZpbGwtcnVsZTpldmVub2RkO2NsaXAtcnVsZTpldmVub2RkO2ZpbGw6IzNGNTc2NTsiIGQ9Ik01MS4yMywwICAgICAgQzEuOTcsMCwxLjk3LDAsMS45NywwQzAuMzMsMCwwLDAuMzksMCwyLjAzYzAsMzUsMCwzNSwwLDM1QzAsMzguNjcsMC4zMywzOSwxLjk3LDM5YzQ5LjI2LDAsNDkuMjYsMCw0OS4yNiwwICAgICAgYzEuNywwLDIuMDMtMC4zMywyLjAzLTEuOTdjMC0zNSwwLTM1LDAtMzVDNTMuMjYsMC4zOSw1Mi45MywwLDUxLjIzLDB6Ii8+JiN4YTsJCQk8L2c+JiN4YTsJCQk8ZyBpZD0ic2hhcGUxNjkwLTUiIHRyYW5zZm9ybT0idHJhbnNsYXRlKDQ5LjU3NzUsLTM2LjEwNjEpIj4mI3hhOwkJCQk8dGl0bGUgaWQ9InRpdGxlMjU0NDQiPlNoZWV0LjE2OTA8L3RpdGxlPiYjeGE7CQkJCTxwYXRoIGlkPSJwYXRoMjU0NDYiIGlua3NjYXBlOmNvbm5lY3Rvci1jdXJ2YXR1cmU9IjAiIHN0eWxlPSJmaWxsLXJ1bGU6ZXZlbm9kZDtjbGlwLXJ1bGU6ZXZlbm9kZDtmaWxsOiMzRjU3NjU7IiBkPSIgICAgICBNMi4yNSwzNy44OWMwLDAuNjMtMC41LDEuMTEtMS4xMSwxLjExUzAsMzguNTIsMCwzNy44OWMwLTAuNjEsMC41My0xLjExLDEuMTQtMS4xMVMyLjI1LDM3LjI4LDIuMjUsMzcuODl6Ii8+JiN4YTsJCQk8L2c+JiN4YTsJCTwvZz4mI3hhOwkJPGcgaWQ9InNoYXBlMTY5MS03IiB0cmFuc2Zvcm09InRyYW5zbGF0ZSgxLjMyMjI2LC0xLjgwOTc1KSI+JiN4YTsJCQk8dGl0bGUgaWQ9InRpdGxlMjU0NTAiPkMjLjUyNDwvdGl0bGU+JiN4YTsJCQk8cGF0aCBpZD0icGF0aDI1NDUyIiBpbmtzY2FwZTpjb25uZWN0b3ItY3VydmF0dXJlPSIwIiBzdHlsZT0iZmlsbC1ydWxlOmV2ZW5vZGQ7Y2xpcC1ydWxlOmV2ZW5vZGQ7ZmlsbDojMDBCMEYwOyIgZD0iTTAsNy43M1YzOSAgICAgaDUwLjI4VjcuNzNIMHoiLz4mI3hhOwkJPC9nPiYjeGE7CQk8ZyBpZD0iZ3JvdXAxNjkyLTkiIHRyYW5zZm9ybT0idHJhbnNsYXRlKDIuMjA3MTgsLTE4LjM3NjQpIj4mI3hhOwkJCTx0aXRsZSBpZD0idGl0bGUyNTQ1NSI+U2hlZXQuMTY5MjwvdGl0bGU+JiN4YTsJCQk8ZyBpZD0ic2hhcGUxNjkzLTEwIj4mI3hhOwkJCQk8dGl0bGUgaWQ9InRpdGxlMjU0NTciPlNoZWV0LjE2OTM8L3RpdGxlPiYjeGE7CQkJCTxwYXRoIGlkPSJwYXRoMjU0NTkiIGlua3NjYXBlOmNvbm5lY3Rvci1jdXJ2YXR1cmU9IjAiIHN0eWxlPSJmaWxsLXJ1bGU6ZXZlbm9kZDtjbGlwLXJ1bGU6ZXZlbm9kZDtmaWxsOiNGRkZGRkY7IiBkPSIgICAgICBNNS43MiwyNy41NEMyLjU2LDI3LjU0LDAsMzAuMTEsMCwzMy4yN0MwLDM2LjQ0LDIuNTYsMzksNS43MiwzOWMzLjE3LDAsNS43Mi0yLjU2LDUuNzItNS43M0MxMS40NCwzMC4xMSw4Ljg5LDI3LjU0LDUuNzIsMjcuNTQgICAgICB6IE01LjcyLDM4LjIzQzMsMzguMjMsMC43NiwzNiwwLjc2LDMzLjI3YzAtMi43MiwyLjI0LTQuOTYsNC45Ni00Ljk2YzIuNzMsMCw0Ljk2LDIuMjQsNC45Niw0Ljk2ICAgICAgQzEwLjY4LDM2LjAzLDguNDUsMzguMjMsNS43MiwzOC4yM3oiLz4mI3hhOwkJCTwvZz4mI3hhOwkJCTxnIGlkPSJzaGFwZTE2OTQtMTIiIHRyYW5zZm9ybT0idHJhbnNsYXRlKDQuODg2MDQsLTQuODQzODYpIj4mI3hhOwkJCQk8dGl0bGUgaWQ9InRpdGxlMjU0NjIiPlNoZWV0LjE2OTQ8L3RpdGxlPiYjeGE7CQkJCTxwYXRoIGlkPSJwYXRoMjU0NjQiIGlua3NjYXBlOmNvbm5lY3Rvci1jdXJ2YXR1cmU9IjAiIHN0eWxlPSJmaWxsLXJ1bGU6ZXZlbm9kZDtjbGlwLXJ1bGU6ZXZlbm9kZDtmaWxsOiNGRkZGRkY7IiBkPSIgICAgICBNMi44NCwzNi4wMWwtMi4wMiwxLjI3QzAuMzYsMzcuMywwLDM3LjY2LDAsMzguMTRDMCwzOC42MSwwLjM4LDM5LDAuODYsMzljMC40NSwwLDAuODItMC4zNiwwLjgzLTAuODNsMS4yNC0yLjA2ICAgICAgQzIuOTgsMzYuMDYsMi45LDM1Ljk4LDIuODQsMzYuMDF6Ii8+JiN4YTsJCQk8L2c+JiN4YTsJCQk8ZyBpZD0ic2hhcGUxNjk1LTE0IiB0cmFuc2Zvcm09InRyYW5zbGF0ZSg1LjMzODksLTkuMDc5MjYpIj4mI3hhOwkJCQk8dGl0bGUgaWQ9InRpdGxlMjU0NjciPlNoZWV0LjE2OTU8L3RpdGxlPiYjeGE7CQkJCTxwYXRoIGlkPSJwYXRoMjU0NjkiIGlua3NjYXBlOmNvbm5lY3Rvci1jdXJ2YXR1cmU9IjAiIHN0eWxlPSJmaWxsLXJ1bGU6ZXZlbm9kZDtjbGlwLXJ1bGU6ZXZlbm9kZDtmaWxsOiNGRkZGRkY7IiBkPSIgICAgICBNMC4zOCwzOC45N2MwLjE0LDAsMC4yNSwwLDAuMzgsMC4wM3YtMi4xOUgwVjM5QzAuMTQsMzguOTcsMC4yNSwzOC45NywwLjM4LDM4Ljk3eiIvPiYjeGE7CQkJPC9nPiYjeGE7CQkJPGcgaWQ9InNoYXBlMTY5Ni0xNiIgdHJhbnNmb3JtPSJ0cmFuc2xhdGUoMS41NDkyMywtNy44Mzg0NikiPiYjeGE7CQkJCTx0aXRsZSBpZD0idGl0bGUyNTQ3MiI+U2hlZXQuMTY5NjwvdGl0bGU+JiN4YTsJCQkJPHBhdGggaWQ9InBhdGgyNTQ3NCIgaW5rc2NhcGU6Y29ubmVjdG9yLWN1cnZhdHVyZT0iMCIgc3R5bGU9ImZpbGwtcnVsZTpldmVub2RkO2NsaXAtcnVsZTpldmVub2RkO2ZpbGw6I0ZGRkZGRjsiIGQ9IiAgICAgIE0yLjA3LDM4LjQ2bC0xLjUzLTEuNTVMMCwzNy40NUwxLjU1LDM5QzEuNjksMzguODEsMS44OCwzOC42MywyLjA3LDM4LjQ2eiIvPiYjeGE7CQkJPC9nPiYjeGE7CQkJPGcgaWQ9InNoYXBlMTY5Ny0xOCIgdHJhbnNmb3JtPSJ0cmFuc2xhdGUoNy44MTc2NywtNy44Mzg0NikiPiYjeGE7CQkJCTx0aXRsZSBpZD0idGl0bGUyNTQ3NyI+U2hlZXQuMTY5NzwvdGl0bGU+JiN4YTsJCQkJPHBhdGggaWQ9InBhdGgyNTQ3OSIgaW5rc2NhcGU6Y29ubmVjdG9yLWN1cnZhdHVyZT0iMCIgc3R5bGU9ImZpbGwtcnVsZTpldmVub2RkO2NsaXAtcnVsZTpldmVub2RkO2ZpbGw6I0ZGRkZGRjsiIGQ9Ik0wLjU0LDM5ICAgICAgbDEuNTUtMS41NWwtMC41NC0wLjU0TDAsMzguNDZDMC4xOSwzOC42MSwwLjM4LDM4LjgxLDAuNTQsMzl6Ii8+JiN4YTsJCQk8L2c+JiN4YTsJCQk8ZyBpZD0ic2hhcGUxNjk4LTIwIiB0cmFuc2Zvcm09InRyYW5zbGF0ZSg5LjA4MDg5LC01LjM0NDk1KSI+JiN4YTsJCQkJPHRpdGxlIGlkPSJ0aXRsZTI1NDgyIj5TaGVldC4xNjk4PC90aXRsZT4mI3hhOwkJCQk8cGF0aCBpZD0icGF0aDI1NDg0IiBpbmtzY2FwZTpjb25uZWN0b3ItY3VydmF0dXJlPSIwIiBzdHlsZT0iZmlsbC1ydWxlOmV2ZW5vZGQ7Y2xpcC1ydWxlOmV2ZW5vZGQ7ZmlsbDojRkZGRkZGOyIgZD0iTTAsMzguMjMgICAgICBjMC4wMiwwLjE1LDAuMDIsMC4yNSwwLjAyLDAuMzhjMCwwLjE1LDAsMC4yNS0wLjAyLDAuMzloMi4xN3YtMC43N0gweiIvPiYjeGE7CQkJPC9nPiYjeGE7CQkJPGcgaWQ9InNoYXBlMTY5OS0yMiIgdHJhbnNmb3JtPSJ0cmFuc2xhdGUoMC4xOTA2NzUsLTUuMzQ0OTUpIj4mI3hhOwkJCQk8dGl0bGUgaWQ9InRpdGxlMjU0ODciPlNoZWV0LjE2OTk8L3RpdGxlPiYjeGE7CQkJCTxwYXRoIGlkPSJwYXRoMjU0ODkiIGlua3NjYXBlOmNvbm5lY3Rvci1jdXJ2YXR1cmU9IjAiIHN0eWxlPSJmaWxsLXJ1bGU6ZXZlbm9kZDtjbGlwLXJ1bGU6ZXZlbm9kZDtmaWxsOiNGRkZGRkY7IiBkPSIgICAgICBNMi4xNiwzOC42MWMwLTAuMTMsMC0wLjIzLDAuMDItMC4zOEgwVjM5aDIuMThDMi4xNiwzOC44NiwyLjE2LDM4Ljc2LDIuMTYsMzguNjF6Ii8+JiN4YTsJCQk8L2c+JiN4YTsJCQk8ZyBpZD0ic2hhcGUxNzAwLTI0IiB0cmFuc2Zvcm09InRyYW5zbGF0ZSg0LjM4NTUyLC0yLjY3MjQ4KSI+JiN4YTsJCQkJPHRpdGxlIGlkPSJ0aXRsZTI1NDkyIj5TaGVldC4xNzAwPC90aXRsZT4mI3hhOwkJCQk8cGF0aCBpZD0icGF0aDI1NDk0IiBpbmtzY2FwZTpjb25uZWN0b3ItY3VydmF0dXJlPSIwIiBzdHlsZT0iZmlsbC1ydWxlOmV2ZW5vZGQ7Y2xpcC1ydWxlOmV2ZW5vZGQ7ZmlsbDojRkZGRkZGOyIgZD0iTTAsMzguMjMgICAgICBWMzloMi42N3YtMC43N0gweiIvPiYjeGE7CQkJPC9nPiYjeGE7CQk8L2c+JiN4YTsJCTxnIGlkPSJncm91cDE3MDEtMjYiIHRyYW5zZm9ybT0idHJhbnNsYXRlKDE2LjE1MTgsLTE4LjM3NjQpIj4mI3hhOwkJCTx0aXRsZSBpZD0idGl0bGUyNTQ5OCI+U2hlZXQuMTcwMTwvdGl0bGU+JiN4YTsJCQk8ZyBpZD0ic2hhcGUxNzAyLTI3IiB0cmFuc2Zvcm09InRyYW5zbGF0ZSgwLjczODI0MSwtMC45NzQ3NjMpIj4mI3hhOwkJCQk8dGl0bGUgaWQ9InRpdGxlMjU1MDAiPlNoZWV0LjE3MDI8L3RpdGxlPiYjeGE7CQkJCTxwYXRoIGlkPSJwYXRoMjU1MDIiIGlua3NjYXBlOmNvbm5lY3Rvci1jdXJ2YXR1cmU9IjAiIHN0eWxlPSJmaWxsLXJ1bGU6ZXZlbm9kZDtjbGlwLXJ1bGU6ZXZlbm9kZDtmaWxsOiNGRkZGRkY7IiBkPSJNMCwzMy42MyAgICAgIFYzOWgxLjcydi01LjM3SDB6Ii8+JiN4YTsJCQk8L2c+JiN4YTsJCQk8ZyBpZD0ic2hhcGUxNzAzLTI5IiB0cmFuc2Zvcm09InRyYW5zbGF0ZSgyLjk1Mjk2LC0wLjk3NDc2MykiPiYjeGE7CQkJCTx0aXRsZSBpZD0idGl0bGUyNTUwNSI+U2hlZXQuMTcwMzwvdGl0bGU+JiN4YTsJCQkJPHBhdGggaWQ9InBhdGgyNTUwNyIgaW5rc2NhcGU6Y29ubmVjdG9yLWN1cnZhdHVyZT0iMCIgc3R5bGU9ImZpbGwtcnVsZTpldmVub2RkO2NsaXAtcnVsZTpldmVub2RkO2ZpbGw6I0ZGRkZGRjsiIGQ9Ik0wLDM1LjgzICAgICAgVjM5aDEuNzJ2LTMuMTdIMHoiLz4mI3hhOwkJCTwvZz4mI3hhOwkJCTxnIGlkPSJzaGFwZTE3MDQtMzEiIHRyYW5zZm9ybT0idHJhbnNsYXRlKDcuMzgyNDEsLTAuOTc0NzYzKSI+JiN4YTsJCQkJPHRpdGxlIGlkPSJ0aXRsZTI1NTEwIj5TaGVldC4xNzA0PC90aXRsZT4mI3hhOwkJCQk8cGF0aCBpZD0icGF0aDI1NTEyIiBpbmtzY2FwZTpjb25uZWN0b3ItY3VydmF0dXJlPSIwIiBzdHlsZT0iZmlsbC1ydWxlOmV2ZW5vZGQ7Y2xpcC1ydWxlOmV2ZW5vZGQ7ZmlsbDojRkZGRkZGOyIgZD0iTTAsMzIuMTcgICAgICBWMzloMS43MnYtNi44M0gweiIvPiYjeGE7CQkJPC9nPiYjeGE7CQkJPGcgaWQ9InNoYXBlMTcwNS0zMyIgdHJhbnNmb3JtPSJ0cmFuc2xhdGUoOS41OTcxNCwtMC45NzQ3NjMpIj4mI3hhOwkJCQk8dGl0bGUgaWQ9InRpdGxlMjU1MTUiPlNoZWV0LjE3MDU8L3RpdGxlPiYjeGE7CQkJCTxwYXRoIGlkPSJwYXRoMjU1MTciIGlua3NjYXBlOmNvbm5lY3Rvci1jdXJ2YXR1cmU9IjAiIHN0eWxlPSJmaWxsLXJ1bGU6ZXZlbm9kZDtjbGlwLXJ1bGU6ZXZlbm9kZDtmaWxsOiNGRkZGRkY7IiBkPSJNMCwzNS4xICAgICAgVjM5aDEuNzJ2LTMuOUgweiIvPiYjeGE7CQkJPC9nPiYjeGE7CQkJPGcgaWQ9InNoYXBlMTcwNi0zNSIgdHJhbnNmb3JtPSJ0cmFuc2xhdGUoNS4xNjc2OSwtMC45NzQ3NjMpIj4mI3hhOwkJCQk8dGl0bGUgaWQ9InRpdGxlMjU1MjAiPlNoZWV0LjE3MDY8L3RpdGxlPiYjeGE7CQkJCTxwYXRoIGlkPSJwYXRoMjU1MjIiIGlua3NjYXBlOmNvbm5lY3Rvci1jdXJ2YXR1cmU9IjAiIHN0eWxlPSJmaWxsLXJ1bGU6ZXZlbm9kZDtjbGlwLXJ1bGU6ZXZlbm9kZDtmaWxsOiNGRkZGRkY7IiBkPSJNMCwzMC45NSAgICAgIFYzOWgxLjcydi04LjA1SDB6Ii8+JiN4YTsJCQk8L2c+JiN4YTsJCQk8ZyBpZD0ic2hhcGUxNzA3LTM3Ij4mI3hhOwkJCQk8dGl0bGUgaWQ9InRpdGxlMjU1MjUiPlNoZWV0LjE3MDc8L3RpdGxlPiYjeGE7CQkJCTxwYXRoIGlkPSJwYXRoMjU1MjciIGlua3NjYXBlOmNvbm5lY3Rvci1jdXJ2YXR1cmU9IjAiIHN0eWxlPSJmaWxsLXJ1bGU6ZXZlbm9kZDtjbGlwLXJ1bGU6ZXZlbm9kZDtmaWxsOiNGRkZGRkY7IiBkPSIgICAgICBNMC40OSwzOC41MVYyNy41NEgwVjM5aDEyLjA2di0wLjQ5SDAuNDl6Ii8+JiN4YTsJCQk8L2c+JiN4YTsJCTwvZz4mI3hhOwkJPGcgaWQ9Imdyb3VwMTcwOC0zOSIgdHJhbnNmb3JtPSJ0cmFuc2xhdGUoMzAuNzE0LC0xOC4xMTc1KSI+JiN4YTsJCQk8dGl0bGUgaWQ9InRpdGxlMjU1MzEiPlNoZWV0LjE3MDg8L3RpdGxlPiYjeGE7CQkJPGcgaWQ9InNoYXBlMTcwOS00MCIgdHJhbnNmb3JtPSJ0cmFuc2xhdGUoMC45ODQzMjIsLTAuOTc2MDM0KSI+JiN4YTsJCQkJPHRpdGxlIGlkPSJ0aXRsZTI1NTMzIj5TaGVldC4xNzA5PC90aXRsZT4mI3hhOwkJCQk8cGF0aCBpZD0icGF0aDI1NTM1IiBpbmtzY2FwZTpjb25uZWN0b3ItY3VydmF0dXJlPSIwIiBzdHlsZT0iZmlsbC1ydWxlOmV2ZW5vZGQ7Y2xpcC1ydWxlOmV2ZW5vZGQ7ZmlsbDojRkZGRkZGOyIgZD0iICAgICAgTTguMiwzMy43OGwtMy40LDQuMjRMMiwzNS42bC0xLjkyLDEuNjNMMCwzNy4xNFYzOWgxMS4wN3YtMy41OUw4LjIsMzMuNzh6Ii8+JiN4YTsJCQk8L2c+JiN4YTsJCQk8ZyBpZD0ic2hhcGUxNzEwLTQyIiB0cmFuc2Zvcm09InRyYW5zbGF0ZSgwLjk4NDMyMiwtMy4zMzk4NykiPiYjeGE7CQkJCTx0aXRsZSBpZD0idGl0bGUyNTUzOCI+U2hlZXQuMTcxMDwvdGl0bGU+JiN4YTsJCQkJPHBhdGggaWQ9InBhdGgyNTU0MCIgaW5rc2NhcGU6Y29ubmVjdG9yLWN1cnZhdHVyZT0iMCIgc3R5bGU9ImZpbGwtcnVsZTpldmVub2RkO2NsaXAtcnVsZTpldmVub2RkO2ZpbGw6I0ZGRkZGRjsiIGQ9IiAgICAgIE03Ljk4LDMxLjExTDQsMzUuNzJsLTMuMTEtMC44NEwwLDM2LjE0djIuMzhsMi0xLjY5TDQuNTEsMzlsMy4zMy00LjExbDMuMjMsMS44OHYtNC45Nkw3Ljk4LDMxLjExeiIvPiYjeGE7CQkJPC9nPiYjeGE7CQkJPGcgaWQ9InNoYXBlMTcxMS00NCI+JiN4YTsJCQkJPHRpdGxlIGlkPSJ0aXRsZTI1NTQzIj5TaGVldC4xNzExPC90aXRsZT4mI3hhOwkJCQk8cGF0aCBpZD0icGF0aDI1NTQ1IiBpbmtzY2FwZTpjb25uZWN0b3ItY3VydmF0dXJlPSIwIiBzdHlsZT0iZmlsbC1ydWxlOmV2ZW5vZGQ7Y2xpcC1ydWxlOmV2ZW5vZGQ7ZmlsbDojRkZGRkZGOyIgZD0iICAgICAgTTAuNDksMzguNTFWMjcuMjhIMFYzOWgxMi4wNnYtMC40OUgwLjQ5eiIvPiYjeGE7CQkJPC9nPiYjeGE7CQk8L2c+JiN4YTsJCTxnIGlkPSJncm91cDE3MTItNDYiIHRyYW5zZm9ybT0idHJhbnNsYXRlKDQ0LjgyODQsLTE4LjExNzUpIj4mI3hhOwkJCTx0aXRsZSBpZD0idGl0bGUyNTU0OSI+U2hlZXQuMTcxMjwvdGl0bGU+JiN4YTsJCQk8ZyBpZD0ic2hhcGUxNzEzLTQ3IiB0cmFuc2Zvcm09InRyYW5zbGF0ZSgxLjI3NzI0LC0wLjAyMzk5MTIpIj4mI3hhOwkJCQk8dGl0bGUgaWQ9InRpdGxlMjU1NTEiPlNoZWV0LjE3MTM8L3RpdGxlPiYjeGE7CQkJCSYjeGE7CQkJCQk8cGF0aCBpZD0icGF0aDI1NTUzIiBpbmtzY2FwZTpjb25uZWN0b3ItY3VydmF0dXJlPSIwIiBzdHlsZT0iZmlsbC1ydWxlOmV2ZW5vZGQ7Y2xpcC1ydWxlOmV2ZW5vZGQ7ZmlsbDojRkZGRkZGO3N0cm9rZTojRkZGRkZGO3N0cm9rZS13aWR0aDowLjI1O3N0cm9rZS1saW5lY2FwOnJvdW5kO3N0cm9rZS1saW5lam9pbjpyb3VuZDtzdHJva2UtbWl0ZXJsaW1pdDozOyIgZD0iICAgICAgTTAsMjcuMzRWMzloMC4zMlYyNy4zNEgweiIvPiYjeGE7CQkJPC9nPiYjeGE7CQkJPGcgaWQ9InNoYXBlMTcxNC00OSIgdHJhbnNmb3JtPSJ0cmFuc2xhdGUoMS4yNzcyNCwtMC4wMjM5OTEyKSI+JiN4YTsJCQkJPHRpdGxlIGlkPSJ0aXRsZTI1NTU2Ij5TaGVldC4xNzE0PC90aXRsZT4mI3hhOwkJCQkmI3hhOwkJCQkJPHBhdGggaWQ9InBhdGgyNTU1OCIgaW5rc2NhcGU6Y29ubmVjdG9yLWN1cnZhdHVyZT0iMCIgc3R5bGU9ImZpbGw6bm9uZTtzdHJva2U6I0ZGRkZGRjtzdHJva2Utd2lkdGg6MC4yNTtzdHJva2UtbGluZWNhcDpyb3VuZDtzdHJva2UtbGluZWpvaW46cm91bmQ7c3Ryb2tlLW1pdGVybGltaXQ6MzsiIGQ9IiAgICAgIE0wLDM5aDAuMzJWMjcuMzRIMFYzOUwwLDM5Ii8+JiN4YTsJCQk8L2c+JiN4YTsJCQk8ZyBpZD0ic2hhcGUxNzE1LTUyIiB0cmFuc2Zvcm09InRyYW5zbGF0ZSg0LjUxMjExLC0wLjAzNTk4NykiPiYjeGE7CQkJCTx0aXRsZSBpZD0idGl0bGUyNTU2MSI+U2hlZXQuMTcxNTwvdGl0bGU+JiN4YTsJCQkJJiN4YTsJCQkJCTxwYXRoIGlkPSJwYXRoMjU1NjMiIGlua3NjYXBlOmNvbm5lY3Rvci1jdXJ2YXR1cmU9IjAiIHN0eWxlPSJmaWxsOm5vbmU7c3Ryb2tlOiNGRkZGRkY7c3Ryb2tlLXdpZHRoOjAuMjU7c3Ryb2tlLWxpbmVjYXA6cm91bmQ7c3Ryb2tlLWxpbmVqb2luOnJvdW5kO3N0cm9rZS1taXRlcmxpbWl0OjM7IiBkPSIgICAgICBNMCwyNy40VjM5Ii8+JiN4YTsJCQk8L2c+JiN4YTsJCQk8ZyBpZD0ic2hhcGUxNzE2LTU1IiB0cmFuc2Zvcm09InRyYW5zbGF0ZSgzLjg5MTQsLTExLjYzNTgpIj4mI3hhOwkJCQk8dGl0bGUgaWQ9InRpdGxlMjU1NjYiPlNoZWV0LjE3MTY8L3RpdGxlPiYjeGE7CQkJCSYjeGE7CQkJCQk8cGF0aCBpZD0icGF0aDI1NTY4IiBpbmtzY2FwZTpjb25uZWN0b3ItY3VydmF0dXJlPSIwIiBzdHlsZT0iZmlsbDpub25lO3N0cm9rZTojRkZGRkZGO3N0cm9rZS13aWR0aDowLjI1O3N0cm9rZS1saW5lY2FwOnJvdW5kO3N0cm9rZS1saW5lam9pbjpyb3VuZDtzdHJva2UtbWl0ZXJsaW1pdDozOyIgZD0iICAgICAgTTEuMjEsMzlIMCIvPiYjeGE7CQkJPC9nPiYjeGE7CQkJPGcgaWQ9InNoYXBlMTcxNy01OCIgdHJhbnNmb3JtPSJ0cmFuc2xhdGUoMy44OTE0LC0xMC45MDQpIj4mI3hhOwkJCQk8dGl0bGUgaWQ9InRpdGxlMjU1NzEiPlNoZWV0LjE3MTc8L3RpdGxlPiYjeGE7CQkJCSYjeGE7CQkJCQk8cGF0aCBpZD0icGF0aDI1NTczIiBpbmtzY2FwZTpjb25uZWN0b3ItY3VydmF0dXJlPSIwIiBzdHlsZT0iZmlsbDpub25lO3N0cm9rZTojRkZGRkZGO3N0cm9rZS13aWR0aDowLjI1O3N0cm9rZS1saW5lY2FwOnJvdW5kO3N0cm9rZS1saW5lam9pbjpyb3VuZDtzdHJva2UtbWl0ZXJsaW1pdDozOyIgZD0iICAgICAgTTEuMjEsMzlIMCIvPiYjeGE7CQkJPC9nPiYjeGE7CQkJPGcgaWQ9InNoYXBlMTcxOC02MSIgdHJhbnNmb3JtPSJ0cmFuc2xhdGUoMy44OTE0LC0xMC4xODQzKSI+JiN4YTsJCQkJPHRpdGxlIGlkPSJ0aXRsZTI1NTc2Ij5TaGVldC4xNzE4PC90aXRsZT4mI3hhOwkJCQkmI3hhOwkJCQkJPHBhdGggaWQ9InBhdGgyNTU3OCIgaW5rc2NhcGU6Y29ubmVjdG9yLWN1cnZhdHVyZT0iMCIgc3R5bGU9ImZpbGw6bm9uZTtzdHJva2U6I0ZGRkZGRjtzdHJva2Utd2lkdGg6MC4yNTtzdHJva2UtbGluZWNhcDpyb3VuZDtzdHJva2UtbGluZWpvaW46cm91bmQ7c3Ryb2tlLW1pdGVybGltaXQ6MzsiIGQ9IiAgICAgIE0xLjIxLDM5SDAiLz4mI3hhOwkJCTwvZz4mI3hhOwkJCTxnIGlkPSJzaGFwZTE3MTktNjQiIHRyYW5zZm9ybT0idHJhbnNsYXRlKDMuODkxNCwtOS40NTI1NSkiPiYjeGE7CQkJCTx0aXRsZSBpZD0idGl0bGUyNTU4MSI+U2hlZXQuMTcxOTwvdGl0bGU+JiN4YTsJCQkJJiN4YTsJCQkJCTxwYXRoIGlkPSJwYXRoMjU1ODMiIGlua3NjYXBlOmNvbm5lY3Rvci1jdXJ2YXR1cmU9IjAiIHN0eWxlPSJmaWxsOm5vbmU7c3Ryb2tlOiNGRkZGRkY7c3Ryb2tlLXdpZHRoOjAuMjU7c3Ryb2tlLWxpbmVjYXA6cm91bmQ7c3Ryb2tlLWxpbmVqb2luOnJvdW5kO3N0cm9rZS1taXRlcmxpbWl0OjM7IiBkPSIgICAgICBNMS4yMSwzOUgwIi8+JiN4YTsJCQk8L2c+JiN4YTsJCQk8ZyBpZD0ic2hhcGUxNzIwLTY3IiB0cmFuc2Zvcm09InRyYW5zbGF0ZSgzLjg5MTQsLTguNzMyODIpIj4mI3hhOwkJCQk8dGl0bGUgaWQ9InRpdGxlMjU1ODYiPlNoZWV0LjE3MjA8L3RpdGxlPiYjeGE7CQkJCSYjeGE7CQkJCQk8cGF0aCBpZD0icGF0aDI1NTg4IiBpbmtzY2FwZTpjb25uZWN0b3ItY3VydmF0dXJlPSIwIiBzdHlsZT0iZmlsbDpub25lO3N0cm9rZTojRkZGRkZGO3N0cm9rZS13aWR0aDowLjI1O3N0cm9rZS1saW5lY2FwOnJvdW5kO3N0cm9rZS1saW5lam9pbjpyb3VuZDtzdHJva2UtbWl0ZXJsaW1pdDozOyIgZD0iICAgICAgTTEuMjEsMzlIMCIvPiYjeGE7CQkJPC9nPiYjeGE7CQkJPGcgaWQ9InNoYXBlMTcyMS03MCIgdHJhbnNmb3JtPSJ0cmFuc2xhdGUoMy44OTE0LC04LjAwMTA4KSI+JiN4YTsJCQkJPHRpdGxlIGlkPSJ0aXRsZTI1NTkxIj5TaGVldC4xNzIxPC90aXRsZT4mI3hhOwkJCQkmI3hhOwkJCQkJPHBhdGggaWQ9InBhdGgyNTU5MyIgaW5rc2NhcGU6Y29ubmVjdG9yLWN1cnZhdHVyZT0iMCIgc3R5bGU9ImZpbGw6bm9uZTtzdHJva2U6I0ZGRkZGRjtzdHJva2Utd2lkdGg6MC4yNTtzdHJva2UtbGluZWNhcDpyb3VuZDtzdHJva2UtbGluZWpvaW46cm91bmQ7c3Ryb2tlLW1pdGVybGltaXQ6MzsiIGQ9IiAgICAgIE0xLjIxLDM5SDAiLz4mI3hhOwkJCTwvZz4mI3hhOwkJCTxnIGlkPSJzaGFwZTE3MjItNzMiIHRyYW5zZm9ybT0idHJhbnNsYXRlKDMuODkxNCwtNy4yODEzNCkiPiYjeGE7CQkJCTx0aXRsZSBpZD0idGl0bGUyNTU5NiI+U2hlZXQuMTcyMjwvdGl0bGU+JiN4YTsJCQkJJiN4YTsJCQkJCTxwYXRoIGlkPSJwYXRoMjU1OTgiIGlua3NjYXBlOmNvbm5lY3Rvci1jdXJ2YXR1cmU9IjAiIHN0eWxlPSJmaWxsOm5vbmU7c3Ryb2tlOiNGRkZGRkY7c3Ryb2tlLXdpZHRoOjAuMjU7c3Ryb2tlLWxpbmVjYXA6cm91bmQ7c3Ryb2tlLWxpbmVqb2luOnJvdW5kO3N0cm9rZS1taXRlcmxpbWl0OjM7IiBkPSIgICAgICBNMS4yMSwzOUgwIi8+JiN4YTsJCQk8L2c+JiN4YTsJCQk8ZyBpZD0ic2hhcGUxNzIzLTc2IiB0cmFuc2Zvcm09InRyYW5zbGF0ZSgzLjg5MTQsLTYuNTM3NjIpIj4mI3hhOwkJCQk8dGl0bGUgaWQ9InRpdGxlMjU2MDEiPlNoZWV0LjE3MjM8L3RpdGxlPiYjeGE7CQkJCSYjeGE7CQkJCQk8cGF0aCBpZD0icGF0aDI1NjAzIiBpbmtzY2FwZTpjb25uZWN0b3ItY3VydmF0dXJlPSIwIiBzdHlsZT0iZmlsbDpub25lO3N0cm9rZTojRkZGRkZGO3N0cm9rZS13aWR0aDowLjI1O3N0cm9rZS1saW5lY2FwOnJvdW5kO3N0cm9rZS1saW5lam9pbjpyb3VuZDtzdHJva2UtbWl0ZXJsaW1pdDozOyIgZD0iICAgICAgTTEuMjEsMzlIMCIvPiYjeGE7CQkJPC9nPiYjeGE7CQkJPGcgaWQ9InNoYXBlMTcyNC03OSIgdHJhbnNmb3JtPSJ0cmFuc2xhdGUoMy44OTE0LC01LjgwNTg4KSI+JiN4YTsJCQkJPHRpdGxlIGlkPSJ0aXRsZTI1NjA2Ij5TaGVldC4xNzI0PC90aXRsZT4mI3hhOwkJCQkmI3hhOwkJCQkJPHBhdGggaWQ9InBhdGgyNTYwOCIgaW5rc2NhcGU6Y29ubmVjdG9yLWN1cnZhdHVyZT0iMCIgc3R5bGU9ImZpbGw6bm9uZTtzdHJva2U6I0ZGRkZGRjtzdHJva2Utd2lkdGg6MC4yNTtzdHJva2UtbGluZWNhcDpyb3VuZDtzdHJva2UtbGluZWpvaW46cm91bmQ7c3Ryb2tlLW1pdGVybGltaXQ6MzsiIGQ9IiAgICAgIE0xLjIxLDM5SDAiLz4mI3hhOwkJCTwvZz4mI3hhOwkJCTxnIGlkPSJzaGFwZTE3MjUtODIiIHRyYW5zZm9ybT0idHJhbnNsYXRlKDMuODkxNCwtNS4wODYxNCkiPiYjeGE7CQkJCTx0aXRsZSBpZD0idGl0bGUyNTYxMSI+U2hlZXQuMTcyNTwvdGl0bGU+JiN4YTsJCQkJJiN4YTsJCQkJCTxwYXRoIGlkPSJwYXRoMjU2MTMiIGlua3NjYXBlOmNvbm5lY3Rvci1jdXJ2YXR1cmU9IjAiIHN0eWxlPSJmaWxsOm5vbmU7c3Ryb2tlOiNGRkZGRkY7c3Ryb2tlLXdpZHRoOjAuMjU7c3Ryb2tlLWxpbmVjYXA6cm91bmQ7c3Ryb2tlLWxpbmVqb2luOnJvdW5kO3N0cm9rZS1taXRlcmxpbWl0OjM7IiBkPSIgICAgICBNMS4yMSwzOUgwIi8+JiN4YTsJCQk8L2c+JiN4YTsJCQk8ZyBpZD0ic2hhcGUxNzI2LTg1IiB0cmFuc2Zvcm09InRyYW5zbGF0ZSgzLjg5MTQsLTQuMzU0NDEpIj4mI3hhOwkJCQk8dGl0bGUgaWQ9InRpdGxlMjU2MTYiPlNoZWV0LjE3MjY8L3RpdGxlPiYjeGE7CQkJCSYjeGE7CQkJCQk8cGF0aCBpZD0icGF0aDI1NjE4IiBpbmtzY2FwZTpjb25uZWN0b3ItY3VydmF0dXJlPSIwIiBzdHlsZT0iZmlsbDpub25lO3N0cm9rZTojRkZGRkZGO3N0cm9rZS13aWR0aDowLjI1O3N0cm9rZS1saW5lY2FwOnJvdW5kO3N0cm9rZS1saW5lam9pbjpyb3VuZDtzdHJva2UtbWl0ZXJsaW1pdDozOyIgZD0iICAgICAgTTEuMjEsMzlIMCIvPiYjeGE7CQkJPC9nPiYjeGE7CQkJPGcgaWQ9InNoYXBlMTcyNy04OCIgdHJhbnNmb3JtPSJ0cmFuc2xhdGUoMy44OTE0LC0zLjYyMjY4KSI+JiN4YTsJCQkJPHRpdGxlIGlkPSJ0aXRsZTI1NjIxIj5TaGVldC4xNzI3PC90aXRsZT4mI3hhOwkJCQkmI3hhOwkJCQkJPHBhdGggaWQ9InBhdGgyNTYyMyIgaW5rc2NhcGU6Y29ubmVjdG9yLWN1cnZhdHVyZT0iMCIgc3R5bGU9ImZpbGw6bm9uZTtzdHJva2U6I0ZGRkZGRjtzdHJva2Utd2lkdGg6MC4yNTtzdHJva2UtbGluZWNhcDpyb3VuZDtzdHJva2UtbGluZWpvaW46cm91bmQ7c3Ryb2tlLW1pdGVybGltaXQ6MzsiIGQ9IiAgICAgIE0xLjIxLDM5SDAiLz4mI3hhOwkJCTwvZz4mI3hhOwkJCTxnIGlkPSJzaGFwZTE3MjgtOTEiIHRyYW5zZm9ybT0idHJhbnNsYXRlKDMuODkxNCwtMi45MDI5NCkiPiYjeGE7CQkJCTx0aXRsZSBpZD0idGl0bGUyNTYyNiI+U2hlZXQuMTcyODwvdGl0bGU+JiN4YTsJCQkJJiN4YTsJCQkJCTxwYXRoIGlkPSJwYXRoMjU2MjgiIGlua3NjYXBlOmNvbm5lY3Rvci1jdXJ2YXR1cmU9IjAiIHN0eWxlPSJmaWxsOm5vbmU7c3Ryb2tlOiNGRkZGRkY7c3Ryb2tlLXdpZHRoOjAuMjU7c3Ryb2tlLWxpbmVjYXA6cm91bmQ7c3Ryb2tlLWxpbmVqb2luOnJvdW5kO3N0cm9rZS1taXRlcmxpbWl0OjM7IiBkPSIgICAgICBNMS4yMSwzOUgwIi8+JiN4YTsJCQk8L2c+JiN4YTsJCQk8ZyBpZD0ic2hhcGUxNzI5LTk0IiB0cmFuc2Zvcm09InRyYW5zbGF0ZSgzLjg5MTQsLTIuMTcxMjEpIj4mI3hhOwkJCQk8dGl0bGUgaWQ9InRpdGxlMjU2MzEiPlNoZWV0LjE3Mjk8L3RpdGxlPiYjeGE7CQkJCSYjeGE7CQkJCQk8cGF0aCBpZD0icGF0aDI1NjMzIiBpbmtzY2FwZTpjb25uZWN0b3ItY3VydmF0dXJlPSIwIiBzdHlsZT0iZmlsbDpub25lO3N0cm9rZTojRkZGRkZGO3N0cm9rZS13aWR0aDowLjI1O3N0cm9rZS1saW5lY2FwOnJvdW5kO3N0cm9rZS1saW5lam9pbjpyb3VuZDtzdHJva2UtbWl0ZXJsaW1pdDozOyIgZD0iICAgICAgTTEuMjEsMzlIMCIvPiYjeGE7CQkJPC9nPiYjeGE7CQkJPGcgaWQ9InNoYXBlMTczMC05NyIgdHJhbnNmb3JtPSJ0cmFuc2xhdGUoMy44OTE0LC0xLjQ1MTQ3KSI+JiN4YTsJCQkJPHRpdGxlIGlkPSJ0aXRsZTI1NjM2Ij5TaGVldC4xNzMwPC90aXRsZT4mI3hhOwkJCQkmI3hhOwkJCQkJPHBhdGggaWQ9InBhdGgyNTYzOCIgaW5rc2NhcGU6Y29ubmVjdG9yLWN1cnZhdHVyZT0iMCIgc3R5bGU9ImZpbGw6bm9uZTtzdHJva2U6I0ZGRkZGRjtzdHJva2Utd2lkdGg6MC4yNTtzdHJva2UtbGluZWNhcDpyb3VuZDtzdHJva2UtbGluZWpvaW46cm91bmQ7c3Ryb2tlLW1pdGVybGltaXQ6MzsiIGQ9IiAgICAgIE0xLjIxLDM5SDAiLz4mI3hhOwkJCTwvZz4mI3hhOwkJCTxnIGlkPSJzaGFwZTE3MzEtMTAwIiB0cmFuc2Zvcm09InRyYW5zbGF0ZSgzLjg5MTQsLTAuNzE5NzM3KSI+JiN4YTsJCQkJPHRpdGxlIGlkPSJ0aXRsZTI1NjQxIj5TaGVldC4xNzMxPC90aXRsZT4mI3hhOwkJCQkmI3hhOwkJCQkJPHBhdGggaWQ9InBhdGgyNTY0MyIgaW5rc2NhcGU6Y29ubmVjdG9yLWN1cnZhdHVyZT0iMCIgc3R5bGU9ImZpbGw6bm9uZTtzdHJva2U6I0ZGRkZGRjtzdHJva2Utd2lkdGg6MC4yNTtzdHJva2UtbGluZWNhcDpyb3VuZDtzdHJva2UtbGluZWpvaW46cm91bmQ7c3Ryb2tlLW1pdGVybGltaXQ6MzsiIGQ9IiAgICAgIE0xLjIxLDM5SDAiLz4mI3hhOwkJCTwvZz4mI3hhOwkJCTxnIGlkPSJzaGFwZTE3MzItMTAzIiB0cmFuc2Zvcm09InRyYW5zbGF0ZSgzLjg5MTQpIj4mI3hhOwkJCQk8dGl0bGUgaWQ9InRpdGxlMjU2NDYiPlNoZWV0LjE3MzI8L3RpdGxlPiYjeGE7CQkJCSYjeGE7CQkJCQk8cGF0aCBpZD0icGF0aDI1NjQ4IiBpbmtzY2FwZTpjb25uZWN0b3ItY3VydmF0dXJlPSIwIiBzdHlsZT0iZmlsbDpub25lO3N0cm9rZTojRkZGRkZGO3N0cm9rZS13aWR0aDowLjI1O3N0cm9rZS1saW5lY2FwOnJvdW5kO3N0cm9rZS1saW5lam9pbjpyb3VuZDtzdHJva2UtbWl0ZXJsaW1pdDozOyIgZD0iICAgICAgTTEuMjEsMzlIMCIvPiYjeGE7CQkJPC9nPiYjeGE7CQkJPGcgaWQ9InNoYXBlMTczMy0xMDYiIHRyYW5zZm9ybT0idHJhbnNsYXRlKDAsLTguMTU3MDMpIj4mI3hhOwkJCQk8dGl0bGUgaWQ9InRpdGxlMjU2NTEiPlNoZWV0LjE3MzM8L3RpdGxlPiYjeGE7CQkJCSYjeGE7CQkJCQk8cGF0aCBpZD0icGF0aDI1NjUzIiBpbmtzY2FwZTpjb25uZWN0b3ItY3VydmF0dXJlPSIwIiBzdHlsZT0iZmlsbC1ydWxlOmV2ZW5vZGQ7Y2xpcC1ydWxlOmV2ZW5vZGQ7ZmlsbDojRkZGRkZGO3N0cm9rZTojRkZGRkZGO3N0cm9rZS13aWR0aDowLjI1O3N0cm9rZS1saW5lY2FwOnJvdW5kO3N0cm9rZS1saW5lam9pbjpyb3VuZDtzdHJva2UtbWl0ZXJsaW1pdDozOyIgZD0iICAgICAgTTAsMzcuOTNoMi4xMnYtMC4yMmwwLjY1LDAuNjVMMi4xMiwzOXYtMC4yMkgwVjM3LjkzeiIvPiYjeGE7CQkJPC9nPiYjeGE7CQkJPGcgaWQ9InNoYXBlMTczNC0xMDgiIHRyYW5zZm9ybT0idHJhbnNsYXRlKDAsLTguMTU3MDMpIj4mI3hhOwkJCQk8dGl0bGUgaWQ9InRpdGxlMjU2NTYiPlNoZWV0LjE3MzQ8L3RpdGxlPiYjeGE7CQkJCSYjeGE7CQkJCQk8cGF0aCBpZD0icGF0aDI1NjU4IiBpbmtzY2FwZTpjb25uZWN0b3ItY3VydmF0dXJlPSIwIiBzdHlsZT0iZmlsbDpub25lO3N0cm9rZTojRkZGRkZGO3N0cm9rZS13aWR0aDowLjI1O3N0cm9rZS1saW5lY2FwOnJvdW5kO3N0cm9rZS1saW5lam9pbjpyb3VuZDtzdHJva2UtbWl0ZXJsaW1pdDozOyIgZD0iICAgICAgTTAsMzcuOTNoMi4xMnYtMC4yMmwwLjY1LDAuNjVMMi4xMiwzOXYtMC4yMkgwVjM3LjkzTDAsMzcuOTMiLz4mI3hhOwkJCTwvZz4mI3hhOwkJPC9nPiYjeGE7CQk8ZyBpZD0ic2hhcGUxNzM1LTExMSIgdHJhbnNmb3JtPSJ0cmFuc2xhdGUoMi4yMDcxOCwtNC4zODY3NSkiPiYjeGE7CQkJPHRpdGxlIGlkPSJ0aXRsZTI1NjYyIj5EYXNoYm9hcmQ8L3RpdGxlPiYjeGE7CQkJPHBhdGggaWQ9InBhdGgyNTY2NCIgaW5rc2NhcGU6Y29ubmVjdG9yLWN1cnZhdHVyZT0iMCIgc3R5bGU9ImZpbGwtcnVsZTpldmVub2RkO2NsaXAtcnVsZTpldmVub2RkO2ZpbGw6I0ZGRkZGRjsiIGQ9IiAgICAgTTAuODMsMzAuNTFsNC43NiwzLjI3bDUuNDMsMC45M0MxMC40NCwzNy4xNiw4LjIzLDM5LDUuNTksMzlDMi41MSwzOSwwLDM2LjUsMCwzMy40QzAsMzIuMzUsMC4zLDMxLjM1LDAuODMsMzAuNTF6IE0xMC4xOSwzMC4yNSAgICAgYzAuNjIsMC44OSwwLjk4LDEuOTgsMC45OCwzLjE1bC0wLjA1LDAuNjVsLTQuNzItMC44TDEwLjE5LDMwLjI1eiBNNi4wOCwyNy44M2MxLjQxLDAuMTIsMi42OCwwLjc2LDMuNTgsMS43NmwtMy41MywzLjEzICAgICBsLTAuMjYsMC4yMUw2LjA4LDI3LjgzeiBNNS4xNSwyNy44MWwwLjIzLDUuMDFsLTQuMDYtM0MyLjI1LDI4LjY4LDMuNiwyNy45Myw1LjE1LDI3LjgxeiIvPiYjeGE7CQk8L2c+JiN4YTsJCTxnIGlkPSJzaGFwZTE3MzYtMTEzIiB0cmFuc2Zvcm09InRyYW5zbGF0ZSgxNS43OTIzLC01LjYzODcyKSI+JiN4YTsJCQk8dGl0bGUgaWQ9InRpdGxlMjU2NjciPlNoZWV0LjE3MzY8L3RpdGxlPiYjeGE7CQkJJiN4YTsJCQkJPHBhdGggaWQ9InBhdGgyNTY2OSIgaW5rc2NhcGU6Y29ubmVjdG9yLWN1cnZhdHVyZT0iMCIgc3R5bGU9ImZpbGwtcnVsZTpldmVub2RkO2NsaXAtcnVsZTpldmVub2RkO2ZpbGw6IzNGNTc2NTtzdHJva2U6I0ZGRkZGRjtzdHJva2Utd2lkdGg6MC43NTtzdHJva2UtbGluZWNhcDpyb3VuZDtzdHJva2UtbGluZWpvaW46cm91bmQ7c3Ryb2tlLW1pdGVybGltaXQ6MzsiIGQ9IiAgICAgTTAsMzQuMDlWMzloNC45M3YtNC45MUgweiIvPiYjeGE7CQk8L2c+JiN4YTsJCTxnIGlkPSJzaGFwZTE3MzctMTE1IiB0cmFuc2Zvcm09InRyYW5zbGF0ZSgxNS43OTIzLC01LjYzODcyKSI+JiN4YTsJCQk8dGl0bGUgaWQ9InRpdGxlMjU2NzIiPlNoZWV0LjE3Mzc8L3RpdGxlPiYjeGE7CQkJJiN4YTsJCQkJPHBhdGggaWQ9InBhdGgyNTY3NCIgaW5rc2NhcGU6Y29ubmVjdG9yLWN1cnZhdHVyZT0iMCIgc3R5bGU9ImZpbGw6bm9uZTtzdHJva2U6I0ZGRkZGRjtzdHJva2Utd2lkdGg6MC42MTMyO3N0cm9rZS1saW5lY2FwOnJvdW5kO3N0cm9rZS1saW5lam9pbjpyb3VuZDtzdHJva2UtbWl0ZXJsaW1pdDozOyIgZD0iICAgICBNMCwzOWg0Ljkzdi00LjkxSDBWMzlMMCwzOSIvPiYjeGE7CQk8L2c+JiN4YTsJCTxnIGlkPSJzaGFwZTE3MzgtMTE4IiB0cmFuc2Zvcm09InRyYW5zbGF0ZSgyMC42NDksLTUuNjM4NzIpIj4mI3hhOwkJCTx0aXRsZSBpZD0idGl0bGUyNTY3NyI+U2hlZXQuMTczODwvdGl0bGU+JiN4YTsJCQkmI3hhOwkJCQk8cGF0aCBpZD0icGF0aDI1Njc5IiBpbmtzY2FwZTpjb25uZWN0b3ItY3VydmF0dXJlPSIwIiBzdHlsZT0iZmlsbDpub25lO3N0cm9rZTojRkZGRkZGO3N0cm9rZS13aWR0aDowLjYxMzI7c3Ryb2tlLWxpbmVjYXA6cm91bmQ7c3Ryb2tlLWxpbmVqb2luOnJvdW5kO3N0cm9rZS1taXRlcmxpbWl0OjM7IiBkPSIgICAgIE0wLDM5aDQuOTN2LTQuOTFIMFYzOUwwLDM5Ii8+JiN4YTsJCTwvZz4mI3hhOwkJPGcgaWQ9InNoYXBlMTczOS0xMjEiIHRyYW5zZm9ybT0idHJhbnNsYXRlKDI1LjU3NywtNS42Mzg3MikiPiYjeGE7CQkJPHRpdGxlIGlkPSJ0aXRsZTI1NjgyIj5TaGVldC4xNzM5PC90aXRsZT4mI3hhOwkJCSYjeGE7CQkJCTxwYXRoIGlkPSJwYXRoMjU2ODQiIGlua3NjYXBlOmNvbm5lY3Rvci1jdXJ2YXR1cmU9IjAiIHN0eWxlPSJmaWxsLXJ1bGU6ZXZlbm9kZDtjbGlwLXJ1bGU6ZXZlbm9kZDtmaWxsOiNGRkZGRkY7c3Ryb2tlOiNGRkZGRkY7c3Ryb2tlLXdpZHRoOjAuNzU7c3Ryb2tlLWxpbmVjYXA6cm91bmQ7c3Ryb2tlLWxpbmVqb2luOnJvdW5kO3N0cm9rZS1taXRlcmxpbWl0OjM7IiBkPSIgICAgIE0wLDM0LjA5VjM5aDQuOTJ2LTQuOTFIMHoiLz4mI3hhOwkJPC9nPiYjeGE7CQk8ZyBpZD0ic2hhcGUxNzQwLTEyMyIgdHJhbnNmb3JtPSJ0cmFuc2xhdGUoMjUuNTc3LC01LjYzODcyKSI+JiN4YTsJCQk8dGl0bGUgaWQ9InRpdGxlMjU2ODciPlNoZWV0LjE3NDA8L3RpdGxlPiYjeGE7CQkJJiN4YTsJCQkJPHBhdGggaWQ9InBhdGgyNTY4OSIgaW5rc2NhcGU6Y29ubmVjdG9yLWN1cnZhdHVyZT0iMCIgc3R5bGU9ImZpbGw6bm9uZTtzdHJva2U6I0ZGRkZGRjtzdHJva2Utd2lkdGg6MC42MTMyO3N0cm9rZS1saW5lY2FwOnJvdW5kO3N0cm9rZS1saW5lam9pbjpyb3VuZDtzdHJva2UtbWl0ZXJsaW1pdDozOyIgZD0iICAgICBNMCwzOWg0Ljkydi00LjkxSDBWMzlMMCwzOSIvPiYjeGE7CQk8L2c+JiN4YTsJCTxnIGlkPSJzaGFwZTE3NDEtMTI2IiB0cmFuc2Zvcm09InRyYW5zbGF0ZSgzMC41MDIsLTUuNjM4NzIpIj4mI3hhOwkJCTx0aXRsZSBpZD0idGl0bGUyNTY5MiI+U2hlZXQuMTc0MTwvdGl0bGU+JiN4YTsJCQkmI3hhOwkJCQk8cGF0aCBpZD0icGF0aDI1Njk0IiBpbmtzY2FwZTpjb25uZWN0b3ItY3VydmF0dXJlPSIwIiBzdHlsZT0iZmlsbC1ydWxlOmV2ZW5vZGQ7Y2xpcC1ydWxlOmV2ZW5vZGQ7ZmlsbDojM0Y1NzY1O3N0cm9rZTojRkZGRkZGO3N0cm9rZS13aWR0aDowLjc1O3N0cm9rZS1saW5lY2FwOnJvdW5kO3N0cm9rZS1saW5lam9pbjpyb3VuZDtzdHJva2UtbWl0ZXJsaW1pdDozOyIgZD0iICAgICBNMCwzNC4wOVYzOWg0Ljkzdi00LjkxSDB6Ii8+JiN4YTsJCTwvZz4mI3hhOwkJPGcgaWQ9InNoYXBlMTc0Mi0xMjgiIHRyYW5zZm9ybT0idHJhbnNsYXRlKDMwLjUwMiwtNS42Mzg3MikiPiYjeGE7CQkJPHRpdGxlIGlkPSJ0aXRsZTI1Njk3Ij5TaGVldC4xNzQyPC90aXRsZT4mI3hhOwkJCSYjeGE7CQkJCTxwYXRoIGlkPSJwYXRoMjU2OTkiIGlua3NjYXBlOmNvbm5lY3Rvci1jdXJ2YXR1cmU9IjAiIHN0eWxlPSJmaWxsOm5vbmU7c3Ryb2tlOiNGRkZGRkY7c3Ryb2tlLXdpZHRoOjAuNjEzMjtzdHJva2UtbGluZWNhcDpyb3VuZDtzdHJva2UtbGluZWpvaW46cm91bmQ7c3Ryb2tlLW1pdGVybGltaXQ6MzsiIGQ9IiAgICAgTTAsMzloNC45M3YtNC45MUgwVjM5TDAsMzkiLz4mI3hhOwkJPC9nPiYjeGE7CQk8ZyBpZD0ic2hhcGUxNzQzLTEzMSIgdHJhbnNmb3JtPSJ0cmFuc2xhdGUoMzUuNDMsLTUuNjM4NzIpIj4mI3hhOwkJCTx0aXRsZSBpZD0idGl0bGUyNTcwMiI+U2hlZXQuMTc0MzwvdGl0bGU+JiN4YTsJCQkmI3hhOwkJCQk8cGF0aCBpZD0icGF0aDI1NzA0IiBpbmtzY2FwZTpjb25uZWN0b3ItY3VydmF0dXJlPSIwIiBzdHlsZT0iZmlsbC1ydWxlOmV2ZW5vZGQ7Y2xpcC1ydWxlOmV2ZW5vZGQ7ZmlsbDojRkZGRkZGO3N0cm9rZTojRkZGRkZGO3N0cm9rZS13aWR0aDowLjc1O3N0cm9rZS1saW5lY2FwOnJvdW5kO3N0cm9rZS1saW5lam9pbjpyb3VuZDtzdHJva2UtbWl0ZXJsaW1pdDozOyIgZD0iICAgICBNMCwzNC4wOVYzOWg0Ljkzdi00LjkxSDB6Ii8+JiN4YTsJCTwvZz4mI3hhOwkJPGcgaWQ9InNoYXBlMTc0NC0xMzMiIHRyYW5zZm9ybT0idHJhbnNsYXRlKDM1LjQzLC01LjYzODcyKSI+JiN4YTsJCQk8dGl0bGUgaWQ9InRpdGxlMjU3MDciPlNoZWV0LjE3NDQ8L3RpdGxlPiYjeGE7CQkJJiN4YTsJCQkJPHBhdGggaWQ9InBhdGgyNTcwOSIgaW5rc2NhcGU6Y29ubmVjdG9yLWN1cnZhdHVyZT0iMCIgc3R5bGU9ImZpbGw6bm9uZTtzdHJva2U6I0ZGRkZGRjtzdHJva2Utd2lkdGg6MC42MTMyO3N0cm9rZS1saW5lY2FwOnJvdW5kO3N0cm9rZS1saW5lam9pbjpyb3VuZDtzdHJva2UtbWl0ZXJsaW1pdDozOyIgZD0iICAgICBNMCwzOWg0Ljkzdi00LjkxSDBWMzlMMCwzOSIvPiYjeGE7CQk8L2c+JiN4YTsJCTxnIGlkPSJzaGFwZTE3NDUtMTM2IiB0cmFuc2Zvcm09InRyYW5zbGF0ZSgxNS43OTIzLC0xMC41MDgpIj4mI3hhOwkJCTx0aXRsZSBpZD0idGl0bGUyNTcxMiI+U2hlZXQuMTc0NTwvdGl0bGU+JiN4YTsJCQkmI3hhOwkJCQk8cGF0aCBpZD0icGF0aDI1NzE0IiBpbmtzY2FwZTpjb25uZWN0b3ItY3VydmF0dXJlPSIwIiBzdHlsZT0iZmlsbC1ydWxlOmV2ZW5vZGQ7Y2xpcC1ydWxlOmV2ZW5vZGQ7ZmlsbDojRkZGRkZGO3N0cm9rZTojRkZGRkZGO3N0cm9rZS13aWR0aDowLjc1O3N0cm9rZS1saW5lY2FwOnJvdW5kO3N0cm9rZS1saW5lam9pbjpyb3VuZDtzdHJva2UtbWl0ZXJsaW1pdDozOyIgZD0iICAgICBNMCwzNC4wOVYzOWg0Ljkzdi00LjkxSDB6Ii8+JiN4YTsJCTwvZz4mI3hhOwkJPGcgaWQ9InNoYXBlMTc0Ni0xMzgiIHRyYW5zZm9ybT0idHJhbnNsYXRlKDE1Ljc5MjMsLTEwLjUwOCkiPiYjeGE7CQkJPHRpdGxlIGlkPSJ0aXRsZTI1NzE3Ij5TaGVldC4xNzQ2PC90aXRsZT4mI3hhOwkJCSYjeGE7CQkJCTxwYXRoIGlkPSJwYXRoMjU3MTkiIGlua3NjYXBlOmNvbm5lY3Rvci1jdXJ2YXR1cmU9IjAiIHN0eWxlPSJmaWxsOm5vbmU7c3Ryb2tlOiNGRkZGRkY7c3Ryb2tlLXdpZHRoOjAuNjEzMjtzdHJva2UtbGluZWNhcDpyb3VuZDtzdHJva2UtbGluZWpvaW46cm91bmQ7c3Ryb2tlLW1pdGVybGltaXQ6MzsiIGQ9IiAgICAgTTAsMzloNC45M3YtNC45MUgwVjM5TDAsMzkiLz4mI3hhOwkJPC9nPiYjeGE7CQk8ZyBpZD0ic2hhcGUxNzQ3LTE0MSIgdHJhbnNmb3JtPSJ0cmFuc2xhdGUoMjAuNjQ5LC0xMC41MDgpIj4mI3hhOwkJCTx0aXRsZSBpZD0idGl0bGUyNTcyMiI+U2hlZXQuMTc0NzwvdGl0bGU+JiN4YTsJCQkmI3hhOwkJCQk8cGF0aCBpZD0icGF0aDI1NzI0IiBpbmtzY2FwZTpjb25uZWN0b3ItY3VydmF0dXJlPSIwIiBzdHlsZT0iZmlsbC1ydWxlOmV2ZW5vZGQ7Y2xpcC1ydWxlOmV2ZW5vZGQ7ZmlsbDojM0Y1NzY1O3N0cm9rZTojRkZGRkZGO3N0cm9rZS13aWR0aDowLjc1O3N0cm9rZS1saW5lY2FwOnJvdW5kO3N0cm9rZS1saW5lam9pbjpyb3VuZDtzdHJva2UtbWl0ZXJsaW1pdDozOyIgZD0iICAgICBNMCwzNC4wOVYzOWg0Ljkzdi00LjkxSDB6Ii8+JiN4YTsJCTwvZz4mI3hhOwkJPGcgaWQ9InNoYXBlMTc0OC0xNDMiIHRyYW5zZm9ybT0idHJhbnNsYXRlKDIwLjY0OSwtMTAuNTA4KSI+JiN4YTsJCQk8dGl0bGUgaWQ9InRpdGxlMjU3MjciPlNoZWV0LjE3NDg8L3RpdGxlPiYjeGE7CQkJJiN4YTsJCQkJPHBhdGggaWQ9InBhdGgyNTcyOSIgaW5rc2NhcGU6Y29ubmVjdG9yLWN1cnZhdHVyZT0iMCIgc3R5bGU9ImZpbGw6bm9uZTtzdHJva2U6I0ZGRkZGRjtzdHJva2Utd2lkdGg6MC42MTMyO3N0cm9rZS1saW5lY2FwOnJvdW5kO3N0cm9rZS1saW5lam9pbjpyb3VuZDtzdHJva2UtbWl0ZXJsaW1pdDozOyIgZD0iICAgICBNMCwzOWg0Ljkzdi00LjkxSDBWMzlMMCwzOSIvPiYjeGE7CQk8L2c+JiN4YTsJCTxnIGlkPSJzaGFwZTE3NDktMTQ2IiB0cmFuc2Zvcm09InRyYW5zbGF0ZSgyNS41NzcsLTEwLjUwOCkiPiYjeGE7CQkJPHRpdGxlIGlkPSJ0aXRsZTI1NzMyIj5TaGVldC4xNzQ5PC90aXRsZT4mI3hhOwkJCSYjeGE7CQkJCTxwYXRoIGlkPSJwYXRoMjU3MzQiIGlua3NjYXBlOmNvbm5lY3Rvci1jdXJ2YXR1cmU9IjAiIHN0eWxlPSJmaWxsLXJ1bGU6ZXZlbm9kZDtjbGlwLXJ1bGU6ZXZlbm9kZDtmaWxsOiMzRjU3NjU7c3Ryb2tlOiNGRkZGRkY7c3Ryb2tlLXdpZHRoOjAuNzU7c3Ryb2tlLWxpbmVjYXA6cm91bmQ7c3Ryb2tlLWxpbmVqb2luOnJvdW5kO3N0cm9rZS1taXRlcmxpbWl0OjM7IiBkPSIgICAgIE0wLDM0LjA5VjM5aDQuOTJ2LTQuOTFIMHoiLz4mI3hhOwkJPC9nPiYjeGE7CQk8ZyBpZD0ic2hhcGUxNzUwLTE0OCIgdHJhbnNmb3JtPSJ0cmFuc2xhdGUoMjUuNTc3LC0xMC41MDgpIj4mI3hhOwkJCTx0aXRsZSBpZD0idGl0bGUyNTczNyI+U2hlZXQuMTc1MDwvdGl0bGU+JiN4YTsJCQkmI3hhOwkJCQk8cGF0aCBpZD0icGF0aDI1NzM5IiBpbmtzY2FwZTpjb25uZWN0b3ItY3VydmF0dXJlPSIwIiBzdHlsZT0iZmlsbDpub25lO3N0cm9rZTojRkZGRkZGO3N0cm9rZS13aWR0aDowLjYxMzI7c3Ryb2tlLWxpbmVjYXA6cm91bmQ7c3Ryb2tlLWxpbmVqb2luOnJvdW5kO3N0cm9rZS1taXRlcmxpbWl0OjM7IiBkPSIgICAgIE0wLDM5aDQuOTJ2LTQuOTFIMFYzOUwwLDM5Ii8+JiN4YTsJCTwvZz4mI3hhOwkJPGcgaWQ9InNoYXBlMTc1MS0xNTEiIHRyYW5zZm9ybT0idHJhbnNsYXRlKDMwLjUwMiwtMTAuNTA4KSI+JiN4YTsJCQk8dGl0bGUgaWQ9InRpdGxlMjU3NDIiPlNoZWV0LjE3NTE8L3RpdGxlPiYjeGE7CQkJJiN4YTsJCQkJPHBhdGggaWQ9InBhdGgyNTc0NCIgaW5rc2NhcGU6Y29ubmVjdG9yLWN1cnZhdHVyZT0iMCIgc3R5bGU9ImZpbGw6bm9uZTtzdHJva2U6I0ZGRkZGRjtzdHJva2Utd2lkdGg6MC42MTMyO3N0cm9rZS1saW5lY2FwOnJvdW5kO3N0cm9rZS1saW5lam9pbjpyb3VuZDtzdHJva2UtbWl0ZXJsaW1pdDozOyIgZD0iICAgICBNMCwzOWg0Ljkzdi00LjkxSDBWMzlMMCwzOSIvPiYjeGE7CQk8L2c+JiN4YTsJCTxnIGlkPSJzaGFwZTE3NTItMTU0IiB0cmFuc2Zvcm09InRyYW5zbGF0ZSgzNS40MywtMTAuNTA4KSI+JiN4YTsJCQk8dGl0bGUgaWQ9InRpdGxlMjU3NDciPlNoZWV0LjE3NTI8L3RpdGxlPiYjeGE7CQkJJiN4YTsJCQkJPHBhdGggaWQ9InBhdGgyNTc0OSIgaW5rc2NhcGU6Y29ubmVjdG9yLWN1cnZhdHVyZT0iMCIgc3R5bGU9ImZpbGwtcnVsZTpldmVub2RkO2NsaXAtcnVsZTpldmVub2RkO2ZpbGw6IzNGNTc2NTtzdHJva2U6I0ZGRkZGRjtzdHJva2Utd2lkdGg6MC43NTtzdHJva2UtbGluZWNhcDpyb3VuZDtzdHJva2UtbGluZWpvaW46cm91bmQ7c3Ryb2tlLW1pdGVybGltaXQ6MzsiIGQ9IiAgICAgTTAsMzQuMDlWMzloNC45M3YtNC45MUgweiIvPiYjeGE7CQk8L2c+JiN4YTsJCTxnIGlkPSJzaGFwZTE3NTMtMTU2IiB0cmFuc2Zvcm09InRyYW5zbGF0ZSgzNS40MywtMTAuNTA4KSI+JiN4YTsJCQk8dGl0bGUgaWQ9InRpdGxlMjU3NTIiPlNoZWV0LjE3NTM8L3RpdGxlPiYjeGE7CQkJJiN4YTsJCQkJPHBhdGggaWQ9InBhdGgyNTc1NCIgaW5rc2NhcGU6Y29ubmVjdG9yLWN1cnZhdHVyZT0iMCIgc3R5bGU9ImZpbGw6bm9uZTtzdHJva2U6I0ZGRkZGRjtzdHJva2Utd2lkdGg6MC42MTMyO3N0cm9rZS1saW5lY2FwOnJvdW5kO3N0cm9rZS1saW5lam9pbjpyb3VuZDtzdHJva2UtbWl0ZXJsaW1pdDozOyIgZD0iICAgICBNMCwzOWg0Ljkzdi00LjkxSDBWMzlMMCwzOSIvPiYjeGE7CQk8L2c+JiN4YTsJCTxnIGlkPSJzaGFwZTE3NTQtMTU5IiB0cmFuc2Zvcm09InRyYW5zbGF0ZSg0NC4wMDEzLC01LjQxMTY2KSI+JiN4YTsJCQk8dGl0bGUgaWQ9InRpdGxlMjU3NTciPlNoZWV0LjE3NTQ8L3RpdGxlPiYjeGE7CQkJJiN4YTsJCQkJPHBhdGggaWQ9InBhdGgyNTc1OSIgaW5rc2NhcGU6Y29ubmVjdG9yLWN1cnZhdHVyZT0iMCIgc3R5bGU9ImZpbGwtcnVsZTpldmVub2RkO2NsaXAtcnVsZTpldmVub2RkO2ZpbGw6IzNGNTc2NTtzdHJva2U6I0ZGRkZGRjtzdHJva2Utd2lkdGg6MC41O3N0cm9rZS1saW5lY2FwOnJvdW5kO3N0cm9rZS1saW5lam9pbjpyb3VuZDtzdHJva2UtbWl0ZXJsaW1pdDozOyIgZD0iICAgICBNMCwzNi40NFYzOWgyLjU3di0yLjU2SDB6Ii8+JiN4YTsJCTwvZz4mI3hhOwkJPGcgaWQ9InNoYXBlMTc1NS0xNjEiIHRyYW5zZm9ybT0idHJhbnNsYXRlKDQ0LjAwMTMsLTUuNDExNjYpIj4mI3hhOwkJCTx0aXRsZSBpZD0idGl0bGUyNTc2MiI+U2hlZXQuMTc1NTwvdGl0bGU+JiN4YTsJCQkmI3hhOwkJCQk8cGF0aCBpZD0icGF0aDI1NzY0IiBpbmtzY2FwZTpjb25uZWN0b3ItY3VydmF0dXJlPSIwIiBzdHlsZT0iZmlsbDpub25lO3N0cm9rZTojRkZGRkZGO3N0cm9rZS13aWR0aDowLjU7c3Ryb2tlLWxpbmVjYXA6cm91bmQ7c3Ryb2tlLWxpbmVqb2luOnJvdW5kO3N0cm9rZS1taXRlcmxpbWl0OjM7IiBkPSIgICAgIE0wLDM5aDIuNTd2LTIuNTZIMFYzOUwwLDM5Ii8+JiN4YTsJCTwvZz4mI3hhOwkJPGcgaWQ9InNoYXBlMTc1Ni0xNjQiIHRyYW5zZm9ybT0idHJhbnNsYXRlKDQ2LjU2NjQsLTUuNDExNjYpIj4mI3hhOwkJCTx0aXRsZSBpZD0idGl0bGUyNTc2NyI+U2hlZXQuMTc1NjwvdGl0bGU+JiN4YTsJCQkmI3hhOwkJCQk8cGF0aCBpZD0icGF0aDI1NzY5IiBpbmtzY2FwZTpjb25uZWN0b3ItY3VydmF0dXJlPSIwIiBzdHlsZT0iZmlsbC1ydWxlOmV2ZW5vZGQ7Y2xpcC1ydWxlOmV2ZW5vZGQ7ZmlsbDojM0Y1NzY1O3N0cm9rZTojRkZGRkZGO3N0cm9rZS13aWR0aDowLjU7c3Ryb2tlLWxpbmVjYXA6cm91bmQ7c3Ryb2tlLWxpbmVqb2luOnJvdW5kO3N0cm9rZS1taXRlcmxpbWl0OjM7IiBkPSIgICAgIE0wLDM2LjQ0VjM5aDIuNTd2LTIuNTZIMHoiLz4mI3hhOwkJPC9nPiYjeGE7CQk8ZyBpZD0ic2hhcGUxNzU3LTE2NiIgdHJhbnNmb3JtPSJ0cmFuc2xhdGUoNDYuNTY2NCwtNS40MTE2NikiPiYjeGE7CQkJPHRpdGxlIGlkPSJ0aXRsZTI1NzcyIj5TaGVldC4xNzU3PC90aXRsZT4mI3hhOwkJCSYjeGE7CQkJCTxwYXRoIGlkPSJwYXRoMjU3NzQiIGlua3NjYXBlOmNvbm5lY3Rvci1jdXJ2YXR1cmU9IjAiIHN0eWxlPSJmaWxsOm5vbmU7c3Ryb2tlOiNGRkZGRkY7c3Ryb2tlLXdpZHRoOjAuNTtzdHJva2UtbGluZWNhcDpyb3VuZDtzdHJva2UtbGluZWpvaW46cm91bmQ7c3Ryb2tlLW1pdGVybGltaXQ6MzsiIGQ9IiAgICAgTTAsMzloMi41N3YtMi41NkgwVjM5TDAsMzkiLz4mI3hhOwkJPC9nPiYjeGE7CQk8ZyBpZD0ic2hhcGUxNzU4LTE2OSIgdHJhbnNmb3JtPSJ0cmFuc2xhdGUoNDQuMDAxMywtNy45NjU2MykiPiYjeGE7CQkJPHRpdGxlIGlkPSJ0aXRsZTI1Nzc3Ij5TaGVldC4xNzU4PC90aXRsZT4mI3hhOwkJCSYjeGE7CQkJCTxwYXRoIGlkPSJwYXRoMjU3NzkiIGlua3NjYXBlOmNvbm5lY3Rvci1jdXJ2YXR1cmU9IjAiIHN0eWxlPSJmaWxsLXJ1bGU6ZXZlbm9kZDtjbGlwLXJ1bGU6ZXZlbm9kZDtmaWxsOiNGRkZGRkY7c3Ryb2tlOiNGRkZGRkY7c3Ryb2tlLXdpZHRoOjAuNTtzdHJva2UtbGluZWNhcDpyb3VuZDtzdHJva2UtbGluZWpvaW46cm91bmQ7c3Ryb2tlLW1pdGVybGltaXQ6MzsiIGQ9IiAgICAgTTAsMzYuNDRWMzloMi41N3YtMi41NkgweiIvPiYjeGE7CQk8L2c+JiN4YTsJCTxnIGlkPSJzaGFwZTE3NTktMTcxIiB0cmFuc2Zvcm09InRyYW5zbGF0ZSg0NC4wMDEzLC03Ljk2NTYzKSI+JiN4YTsJCQk8dGl0bGUgaWQ9InRpdGxlMjU3ODIiPlNoZWV0LjE3NTk8L3RpdGxlPiYjeGE7CQkJJiN4YTsJCQkJPHBhdGggaWQ9InBhdGgyNTc4NCIgaW5rc2NhcGU6Y29ubmVjdG9yLWN1cnZhdHVyZT0iMCIgc3R5bGU9ImZpbGw6bm9uZTtzdHJva2U6I0ZGRkZGRjtzdHJva2Utd2lkdGg6MC41O3N0cm9rZS1saW5lY2FwOnJvdW5kO3N0cm9rZS1saW5lam9pbjpyb3VuZDtzdHJva2UtbWl0ZXJsaW1pdDozOyIgZD0iICAgICBNMCwzOWgyLjU3di0yLjU2SDBWMzlMMCwzOSIvPiYjeGE7CQk8L2c+JiN4YTsJCTxnIGlkPSJzaGFwZTE3NjAtMTc0IiB0cmFuc2Zvcm09InRyYW5zbGF0ZSg0Ni41NjY0LC03Ljk2NTYzKSI+JiN4YTsJCQk8dGl0bGUgaWQ9InRpdGxlMjU3ODciPlNoZWV0LjE3NjA8L3RpdGxlPiYjeGE7CQkJJiN4YTsJCQkJPHBhdGggaWQ9InBhdGgyNTc4OSIgaW5rc2NhcGU6Y29ubmVjdG9yLWN1cnZhdHVyZT0iMCIgc3R5bGU9ImZpbGw6bm9uZTtzdHJva2U6I0ZGRkZGRjtzdHJva2Utd2lkdGg6MC41O3N0cm9rZS1saW5lY2FwOnJvdW5kO3N0cm9rZS1saW5lam9pbjpyb3VuZDtzdHJva2UtbWl0ZXJsaW1pdDozOyIgZD0iICAgICBNMCwzOWgyLjU3di0yLjU2SDBWMzlMMCwzOSIvPiYjeGE7CQk8L2c+JiN4YTsJCTxnIGlkPSJzaGFwZTE3NjEtMTc3IiB0cmFuc2Zvcm09InRyYW5zbGF0ZSg0NC4wMDEzLC0xMC41NjE2KSI+JiN4YTsJCQk8dGl0bGUgaWQ9InRpdGxlMjU3OTIiPlNoZWV0LjE3NjE8L3RpdGxlPiYjeGE7CQkJJiN4YTsJCQkJPHBhdGggaWQ9InBhdGgyNTc5NCIgaW5rc2NhcGU6Y29ubmVjdG9yLWN1cnZhdHVyZT0iMCIgc3R5bGU9ImZpbGw6bm9uZTtzdHJva2U6I0ZGRkZGRjtzdHJva2Utd2lkdGg6MC41O3N0cm9rZS1saW5lY2FwOnJvdW5kO3N0cm9rZS1saW5lam9pbjpyb3VuZDtzdHJva2UtbWl0ZXJsaW1pdDozOyIgZD0iICAgICBNMCwzOWgyLjU3di0yLjU2SDBWMzlMMCwzOSIvPiYjeGE7CQk8L2c+JiN4YTsJCTxnIGlkPSJzaGFwZTE3NjItMTgwIiB0cmFuc2Zvcm09InRyYW5zbGF0ZSg0Ni41NjY0LC0xMC41NjE2KSI+JiN4YTsJCQk8dGl0bGUgaWQ9InRpdGxlMjU3OTciPlNoZWV0LjE3NjI8L3RpdGxlPiYjeGE7CQkJJiN4YTsJCQkJPHBhdGggaWQ9InBhdGgyNTc5OSIgaW5rc2NhcGU6Y29ubmVjdG9yLWN1cnZhdHVyZT0iMCIgc3R5bGU9ImZpbGwtcnVsZTpldmVub2RkO2NsaXAtcnVsZTpldmVub2RkO2ZpbGw6IzNGNTc2NTtzdHJva2U6I0ZGRkZGRjtzdHJva2Utd2lkdGg6MC41O3N0cm9rZS1saW5lY2FwOnJvdW5kO3N0cm9rZS1saW5lam9pbjpyb3VuZDtzdHJva2UtbWl0ZXJsaW1pdDozOyIgZD0iICAgICBNMCwzNi40NFYzOWgyLjU3di0yLjU2SDB6Ii8+JiN4YTsJCTwvZz4mI3hhOwkJPGcgaWQ9InNoYXBlMTc2My0xODIiIHRyYW5zZm9ybT0idHJhbnNsYXRlKDQ2LjU2NjQsLTEwLjU2MTYpIj4mI3hhOwkJCTx0aXRsZSBpZD0idGl0bGUyNTgwMiI+U2hlZXQuMTc2MzwvdGl0bGU+JiN4YTsJCQkmI3hhOwkJCQk8cGF0aCBpZD0icGF0aDI1ODA0IiBpbmtzY2FwZTpjb25uZWN0b3ItY3VydmF0dXJlPSIwIiBzdHlsZT0iZmlsbDpub25lO3N0cm9rZTojRkZGRkZGO3N0cm9rZS13aWR0aDowLjU7c3Ryb2tlLWxpbmVjYXA6cm91bmQ7c3Ryb2tlLWxpbmVqb2luOnJvdW5kO3N0cm9rZS1taXRlcmxpbWl0OjM7IiBkPSIgICAgIE0wLDM5aDIuNTd2LTIuNTZIMFYzOUwwLDM5Ii8+JiN4YTsJCTwvZz4mI3hhOwkJPGcgaWQ9InNoYXBlMTc2NC0xODUiIHRyYW5zZm9ybT0idHJhbnNsYXRlKDQ0LjAwMTMsLTEzLjA5NjIpIj4mI3hhOwkJCTx0aXRsZSBpZD0idGl0bGUyNTgwNyI+U2hlZXQuMTc2NDwvdGl0bGU+JiN4YTsJCQkmI3hhOwkJCQk8cGF0aCBpZD0icGF0aDI1ODA5IiBpbmtzY2FwZTpjb25uZWN0b3ItY3VydmF0dXJlPSIwIiBzdHlsZT0iZmlsbC1ydWxlOmV2ZW5vZGQ7Y2xpcC1ydWxlOmV2ZW5vZGQ7ZmlsbDojRkZGRkZGO3N0cm9rZTojRkZGRkZGO3N0cm9rZS13aWR0aDowLjU7c3Ryb2tlLWxpbmVjYXA6cm91bmQ7c3Ryb2tlLWxpbmVqb2luOnJvdW5kO3N0cm9rZS1taXRlcmxpbWl0OjM7IiBkPSIgICAgIE0wLDM2LjQ0VjM5aDIuNTd2LTIuNTZIMHoiLz4mI3hhOwkJPC9nPiYjeGE7CQk8ZyBpZD0ic2hhcGUxNzY1LTE4NyIgdHJhbnNmb3JtPSJ0cmFuc2xhdGUoNDQuMDAxMywtMTMuMDk2MikiPiYjeGE7CQkJPHRpdGxlIGlkPSJ0aXRsZTI1ODEyIj5TaGVldC4xNzY1PC90aXRsZT4mI3hhOwkJCSYjeGE7CQkJCTxwYXRoIGlkPSJwYXRoMjU4MTQiIGlua3NjYXBlOmNvbm5lY3Rvci1jdXJ2YXR1cmU9IjAiIHN0eWxlPSJmaWxsOm5vbmU7c3Ryb2tlOiNGRkZGRkY7c3Ryb2tlLXdpZHRoOjAuNTtzdHJva2UtbGluZWNhcDpyb3VuZDtzdHJva2UtbGluZWpvaW46cm91bmQ7c3Ryb2tlLW1pdGVybGltaXQ6MzsiIGQ9IiAgICAgTTAsMzloMi41N3YtMi41NkgwVjM5TDAsMzkiLz4mI3hhOwkJPC9nPiYjeGE7CQk8ZyBpZD0ic2hhcGUxNzY2LTE5MCIgdHJhbnNmb3JtPSJ0cmFuc2xhdGUoNDYuNTY2NCwtMTMuMDk2MikiPiYjeGE7CQkJPHRpdGxlIGlkPSJ0aXRsZTI1ODE3Ij5TaGVldC4xNzY2PC90aXRsZT4mI3hhOwkJCSYjeGE7CQkJCTxwYXRoIGlkPSJwYXRoMjU4MTkiIGlua3NjYXBlOmNvbm5lY3Rvci1jdXJ2YXR1cmU9IjAiIHN0eWxlPSJmaWxsLXJ1bGU6ZXZlbm9kZDtjbGlwLXJ1bGU6ZXZlbm9kZDtmaWxsOiMzRjU3NjU7c3Ryb2tlOiNGRkZGRkY7c3Ryb2tlLXdpZHRoOjAuNTtzdHJva2UtbGluZWNhcDpyb3VuZDtzdHJva2UtbGluZWpvaW46cm91bmQ7c3Ryb2tlLW1pdGVybGltaXQ6MzsiIGQ9IiAgICAgTTAsMzYuNDRWMzloMi41N3YtMi41NkgweiIvPiYjeGE7CQk8L2c+JiN4YTsJCTxnIGlkPSJzaGFwZTE3NjctMTkyIiB0cmFuc2Zvcm09InRyYW5zbGF0ZSg0Ni41NjY0LC0xMy4wOTYyKSI+JiN4YTsJCQk8dGl0bGUgaWQ9InRpdGxlMjU4MjIiPlNoZWV0LjE3Njc8L3RpdGxlPiYjeGE7CQkJJiN4YTsJCQkJPHBhdGggaWQ9InBhdGgyNTgyNCIgaW5rc2NhcGU6Y29ubmVjdG9yLWN1cnZhdHVyZT0iMCIgc3R5bGU9ImZpbGw6bm9uZTtzdHJva2U6I0ZGRkZGRjtzdHJva2Utd2lkdGg6MC41O3N0cm9rZS1saW5lY2FwOnJvdW5kO3N0cm9rZS1saW5lam9pbjpyb3VuZDtzdHJva2UtbWl0ZXJsaW1pdDozOyIgZD0iICAgICBNMCwzOWgyLjU3di0yLjU2SDBWMzlMMCwzOSIvPiYjeGE7CQk8L2c+JiN4YTsJPC9nPiYjeGE7PC9nPiYjeGE7PC9zdmc+;strokeColor=#FFFFFF;strokeWidth=3;fillColor=#FF3333;" vertex="1" parent="1">
          <mxGeometry x="991" y="350" width="210.65" height="155" as="geometry" />
        </mxCell>
        <mxCell id="sZor36c5o8YQyrvtszOy-26" style="edgeStyle=orthogonalEdgeStyle;rounded=0;orthogonalLoop=1;jettySize=auto;html=1;exitX=1;exitY=0.5;exitDx=0;exitDy=0;strokeColor=#000000;strokeWidth=3;entryX=-0.024;entryY=0.581;entryDx=0;entryDy=0;entryPerimeter=0;dashed=1;" edge="1" parent="1" source="sZor36c5o8YQyrvtszOy-19" target="sZor36c5o8YQyrvtszOy-18">
          <mxGeometry relative="1" as="geometry">
            <mxPoint x="950" y="440" as="targetPoint" />
          </mxGeometry>
        </mxCell>
        <mxCell id="sZor36c5o8YQyrvtszOy-19" value="" style="shape=image;verticalLabelPosition=bottom;labelBackgroundColor=#ffffff;verticalAlign=top;aspect=fixed;imageAspect=0;image=data:image/svg+xml,PHN2ZyB4bWxuczpjYz0iaHR0cDovL2NyZWF0aXZlY29tbW9ucy5vcmcvbnMjIiB4bWxuczpkYz0iaHR0cDovL3B1cmwub3JnL2RjL2VsZW1lbnRzLzEuMS8iIHhtbG5zOmlua3NjYXBlPSJodHRwOi8vd3d3Lmlua3NjYXBlLm9yZy9uYW1lc3BhY2VzL2lua3NjYXBlIiB4bWxuczpyZGY9Imh0dHA6Ly93d3cudzMub3JnLzE5OTkvMDIvMjItcmRmLXN5bnRheC1ucyMiIHhtbG5zOnNvZGlwb2RpPSJodHRwOi8vc29kaXBvZGkuc291cmNlZm9yZ2UubmV0L0RURC9zb2RpcG9kaS0wLmR0ZCIgeG1sbnM6c3ZnPSJodHRwOi8vd3d3LnczLm9yZy8yMDAwL3N2ZyIgeG1sbnM9Imh0dHA6Ly93d3cudzMub3JnLzIwMDAvc3ZnIiB4bWxuczp4bGluaz0iaHR0cDovL3d3dy53My5vcmcvMTk5OS94bGluayIgdmVyc2lvbj0iMS4xIiBpZD0ic3ZnNDYzODIiIGlua3NjYXBlOnZlcnNpb249IjAuOTIuMyAoMjQwNTU0NiwgMjAxOC0wMy0xMSkiIHNvZGlwb2RpOmRvY25hbWU9ImRhdGFiYXNlLnN2ZyIgeD0iMHB4IiB5PSIwcHgiIHZpZXdCb3g9IjAgMCAzNi44IDQ3LjY5IiBzdHlsZT0iZW5hYmxlLWJhY2tncm91bmQ6bmV3IDAgMCAzNi44IDQ3LjY5OyIgeG1sOnNwYWNlPSJwcmVzZXJ2ZSI+JiN4YTs8c29kaXBvZGk6bmFtZWR2aWV3IGJvcmRlcmNvbG9yPSIjNjY2NjY2IiBib3JkZXJvcGFjaXR5PSIxIiBmaXQtbWFyZ2luLWJvdHRvbT0iMCIgZml0LW1hcmdpbi1sZWZ0PSIwIiBmaXQtbWFyZ2luLXJpZ2h0PSIwIiBmaXQtbWFyZ2luLXRvcD0iMCIgZ3JpZHRvbGVyYW5jZT0iMTAiIGd1aWRldG9sZXJhbmNlPSIxMCIgaWQ9Im5hbWVkdmlldzQ2Mzg0IiBpbmtzY2FwZTpjdXJyZW50LWxheWVyPSJzdmc0NjM4MiIgaW5rc2NhcGU6Y3g9IjIxLjE4MTQxNyIgaW5rc2NhcGU6Y3k9IjExLjk4Mzg2NCIgaW5rc2NhcGU6cGFnZW9wYWNpdHk9IjAiIGlua3NjYXBlOnBhZ2VzaGFkb3c9IjIiIGlua3NjYXBlOndpbmRvdy1oZWlnaHQ9IjEwMTciIGlua3NjYXBlOndpbmRvdy1tYXhpbWl6ZWQ9IjEiIGlua3NjYXBlOndpbmRvdy13aWR0aD0iMTkyMCIgaW5rc2NhcGU6d2luZG93LXg9Ii04IiBpbmtzY2FwZTp3aW5kb3cteT0iLTgiIGlua3NjYXBlOnpvb209IjYuNjA5MjQwNSIgb2JqZWN0dG9sZXJhbmNlPSIxMCIgcGFnZWNvbG9yPSIjZmZmZmZmIiBzaG93Z3JpZD0iZmFsc2UiPiYjeGE7CTwvc29kaXBvZGk6bmFtZWR2aWV3PiYjeGE7PGcgaWQ9Imc0NjM4MCIgdHJhbnNmb3JtPSJ0cmFuc2xhdGUoLTAuNzUsLTAuNzQ2NjI5MTcpIj4mI3hhOwk8dGl0bGUgaWQ9InRpdGxlNDYzNTMiPlBhZ2UtMTwvdGl0bGU+JiN4YTsJPGcgaWQ9Imdyb3VwNDM5Ni0xIiB0cmFuc2Zvcm09InRyYW5zbGF0ZSgxLjUsLTEuNSkiPiYjeGE7CQk8dGl0bGUgaWQ9InRpdGxlNDYzNTUiPkRhdGFiYXNlPC90aXRsZT4mI3hhOwkJPGcgaWQ9InNoYXBlNDM5Ny0yIj4mI3hhOwkJCTx0aXRsZSBpZD0idGl0bGU0NjM1NyI+cGF0aDMxMTY8L3RpdGxlPiYjeGE7CQkJPHBhdGggaWQ9InBhdGg0NjM1OSIgaW5rc2NhcGU6Y29ubmVjdG9yLWN1cnZhdHVyZT0iMCIgc3R5bGU9ImZpbGw6I0ZGRkZGRjsiIGQ9Ik0zMS44LDkuMDFMMjEuNDUsOS4xTDAsOS4yOHYzMy4zNiAgICAgYzAsMy40Miw3LjUsNi4zNywxNy4yNiw2LjU1aDAuMzdjMS4zMiwwLDIuNi0wLjA3LDMuODItMC4xOWMzLjU3LTAuMjIsNy4wOC0xLjA3LDEwLjM1LTIuNTNjMi4xOS0xLjA5LDMuNDYtMi40MiwzLjQ2LTMuODNWOC45OCAgICAgTDMxLjgsOS4wMXoiLz4mI3hhOwkJPC9nPiYjeGE7CQk8ZyBpZD0ic2hhcGU0Mzk4LTQiIHRyYW5zZm9ybT0idHJhbnNsYXRlKDIxLjE1NjksLTAuMTg3NTYxKSI+JiN4YTsJCQk8dGl0bGUgaWQ9InRpdGxlNDYzNjIiPnBhdGgzMTE4PC90aXRsZT4mI3hhOwkJCTxwYXRoIGlkPSJwYXRoNDYzNjQiIGlua3NjYXBlOmNvbm5lY3Rvci1jdXJ2YXR1cmU9IjAiIHN0eWxlPSJmaWxsOiNFNUU1RTU7IiBkPSJNMTAuMzUsOS4ydjM3LjQ2QzcuMDgsNDguMTIsMy41Nyw0OC45NywwLDQ5LjE5ICAgICBWOS4yOUwxMC4zNSw5LjJ6Ii8+JiN4YTsJCTwvZz4mI3hhOwkJPGcgaWQ9InNoYXBlNDM5OS02Ij4mI3hhOwkJCTx0aXRsZSBpZD0idGl0bGU0NjM2NyI+cGF0aDMxMjA8L3RpdGxlPiYjeGE7CQkJPHBhdGggaWQ9InBhdGg0NjM2OSIgaW5rc2NhcGU6Y29ubmVjdG9yLWN1cnZhdHVyZT0iMCIgc3R5bGU9ImZpbGw6bm9uZTsiIGQ9Ik0wLDkuMjh2MzMuMzZjMCwzLjQyLDcuNDYsNi4zNywxNy4yNiw2LjU1aDAuMzcgICAgIGM5Ljk3LTAuMTEsMTcuNjMtMy4wOSwxNy42My02LjU1VjguOThMMCw5LjI4eiIvPiYjeGE7CQkJJiN4YTsJCQkJPHBhdGggaWQ9InBhdGg0NjM3MSIgaW5rc2NhcGU6Y29ubmVjdG9yLWN1cnZhdHVyZT0iMCIgc3R5bGU9ImZpbGw6bm9uZTtzdHJva2U6IzU1NkE4QTtzdHJva2Utd2lkdGg6MS41O3N0cm9rZS1taXRlcmxpbWl0OjM7IiBkPSIgICAgIE0wLDkuMjh2MzMuMzZjMCwzLjQyLDcuNDYsNi4zNywxNy4yNiw2LjU1aDAuMzdjOS45Ny0wLjExLDE3LjYzLTMuMDksMTcuNjMtNi41NVY4Ljk4Ii8+JiN4YTsJCTwvZz4mI3hhOwkJPGcgaWQ9InNoYXBlNDQwMC05IiB0cmFuc2Zvcm09InRyYW5zbGF0ZSgwLjA0NTAxNDYsLTMzLjQ1MzQpIj4mI3hhOwkJCTx0aXRsZSBpZD0idGl0bGU0NjM3NCI+cGF0aDMxMjI8L3RpdGxlPiYjeGE7CQkJJiN4YTsJCQkJPHBhdGggaWQ9InBhdGg0NjM3NiIgaW5rc2NhcGU6Y29ubmVjdG9yLWN1cnZhdHVyZT0iMCIgc3R5bGU9ImZpbGw6I0JBRDgwQTtzdHJva2U6IzU1NkE4QTtzdHJva2Utd2lkdGg6MS41O3N0cm9rZS1taXRlcmxpbWl0OjM7IiBkPSIgICAgIE0zNS4yNiw0Mi44MmMwLDMuNTItNy44OSw2LjM3LTE3LjYzLDYuMzdTMCw0Ni4zNCwwLDQyLjgyczguMTMtNi4zNywxNy44Ni02LjM3UzM1LjI2LDM5LjMsMzUuMjYsNDIuODJ6Ii8+JiN4YTsJCTwvZz4mI3hhOwk8L2c+JiN4YTs8L2c+JiN4YTs8L3N2Zz4=;strokeColor=#FFFFFF;strokeWidth=3;fillColor=#FF3333;" vertex="1" parent="1">
          <mxGeometry x="669.91" y="340" width="154.17" height="200" as="geometry" />
        </mxCell>
        <mxCell id="sZor36c5o8YQyrvtszOy-21" style="edgeStyle=orthogonalEdgeStyle;rounded=0;orthogonalLoop=1;jettySize=auto;html=1;strokeWidth=3;strokeColor=#190033;entryX=0;entryY=0.5;entryDx=0;entryDy=0;dashed=1;" edge="1" parent="1" source="sZor36c5o8YQyrvtszOy-4" target="sZor36c5o8YQyrvtszOy-19">
          <mxGeometry relative="1" as="geometry">
            <mxPoint x="650" y="440" as="targetPoint" />
          </mxGeometry>
        </mxCell>
        <mxCell id="sZor36c5o8YQyrvtszOy-27" value="InfluxDB" style="text;strokeColor=none;fillColor=none;html=1;fontSize=24;fontStyle=1;verticalAlign=middle;align=center;dashed=1;" vertex="1" parent="1">
          <mxGeometry x="696.99" y="430" width="100" height="40" as="geometry" />
        </mxCell>
        <mxCell id="sZor36c5o8YQyrvtszOy-28" value="Granfana" style="text;strokeColor=none;fillColor=none;html=1;fontSize=24;fontStyle=1;verticalAlign=middle;align=center;dashed=1;" vertex="1" parent="1">
          <mxGeometry x="1050" y="520" width="100" height="40" as="geometry" />
        </mxCell>
      </root>
    </mxGraphModel>
  </diagram>
</mxfile>
